<?xml version="1.0" encoding="UTF-8" standalone="no"?>
<!DOCTYPE svg PUBLIC "-//W3C//DTD SVG 1.1//EN"
 "http://www.w3.org/Graphics/SVG/1.1/DTD/svg11.dtd">
<!-- Generated by graphviz version 2.43.0 (0)
 -->
<!-- Title: G Pages: 1 -->
<svg width="6030pt" height="847pt"
 viewBox="0.00 0.00 6030.00 847.00" xmlns="http://www.w3.org/2000/svg" xmlns:xlink="http://www.w3.org/1999/xlink">
<g id="graph0" class="graph" transform="scale(1 1) rotate(0) translate(4 843)">
<title>G</title>
<polygon fill="white" stroke="transparent" points="-4,4 -4,-843 6026,-843 6026,4 -4,4"/>
<!-- TRUSTABLE&#45;SOFTWARE -->
<g id="node1" class="node">
<title>TRUSTABLE&#45;SOFTWARE</title>
<g id="a_node1"><a xlink:href="https://Erikhu1.github.io/json_dev/main/_images/custom_TRUSTABLE-SOFTWARE_graph.svg" xlink:title="TRUSTABLE&#45;SOFTWARE: This\nrelease of JSON&#45;Library\nalso reffered in the\ndocumentation as nlohmann/json\nlibrary is Trustable.\n" target="_top">
<polygon fill="none" stroke="black" points="3124,-839 2876,-839 2876,-756 3124,-756 3124,-839"/>
<text text-anchor="middle" x="3000" y="-823.8" font-family="Open Sans" font-size="14.00">TRUSTABLE&#45;SOFTWARE: This</text>
<text text-anchor="middle" x="3000" y="-808.8" font-family="Open Sans" font-size="14.00">release of JSON&#45;Library</text>
<text text-anchor="middle" x="3000" y="-793.8" font-family="Open Sans" font-size="14.00">also reffered in the</text>
<text text-anchor="middle" x="3000" y="-778.8" font-family="Open Sans" font-size="14.00">documentation as nlohmann/json</text>
<text text-anchor="middle" x="3000" y="-763.8" font-family="Open Sans" font-size="14.00">library is Trustable.</text>
</a>
</g>
</g>
<!-- TT&#45;EXPECTATIONS -->
<g id="node28" class="node">
<title>TT&#45;EXPECTATIONS</title>
<g id="a_node28"><a xlink:href="https://Erikhu1.github.io/json_dev/main/_images/custom_TT-EXPECTATIONS_graph.svg" xlink:title="TT&#45;EXPECTATIONS: Documentation\nis provided, specifying\nwhat nlohmann/json library\nis expected to do, and\nwhat it must not do,\nand how this is verified.\n" target="_top">
<polygon fill="none" stroke="black" points="3128.5,-612 2871.5,-612 2871.5,-514 3128.5,-514 3128.5,-612"/>
<text text-anchor="middle" x="3000" y="-596.8" font-family="Open Sans" font-size="14.00">TT&#45;EXPECTATIONS: Documentation</text>
<text text-anchor="middle" x="3000" y="-581.8" font-family="Open Sans" font-size="14.00">is provided, specifying</text>
<text text-anchor="middle" x="3000" y="-566.8" font-family="Open Sans" font-size="14.00">what nlohmann/json library</text>
<text text-anchor="middle" x="3000" y="-551.8" font-family="Open Sans" font-size="14.00">is expected to do, and</text>
<text text-anchor="middle" x="3000" y="-536.8" font-family="Open Sans" font-size="14.00">what it must not do,</text>
<text text-anchor="middle" x="3000" y="-521.8" font-family="Open Sans" font-size="14.00">and how this is verified.</text>
</a>
</g>
</g>
<!-- TRUSTABLE&#45;SOFTWARE&#45;&gt;TT&#45;EXPECTATIONS -->
<g id="edge1" class="edge">
<title>TRUSTABLE&#45;SOFTWARE&#45;&gt;TT&#45;EXPECTATIONS</title>
<path fill="none" stroke="black" d="M3000,-755.74C3000,-718.88 3000,-664.18 3000,-622.63"/>
<polygon fill="black" stroke="black" points="3003.5,-622.37 3000,-612.37 2996.5,-622.37 3003.5,-622.37"/>
</g>
<!-- AOU&#45;01 -->
<g id="node2" class="node">
<title>AOU&#45;01</title>
<g id="a_node2"><a xlink:href="https://Erikhu1.github.io/json_dev/main/generated/AOU.html#aou-01" xlink:title="AOU&#45;01: The integrator\nshall report problems\nwith nlohmann/json&#39;s\nimplementation to the\nupstream nlohmann/json project\nwhenever a problem is\ndetected. " target="_top">
<polygon fill="none" stroke="black" points="242,-135.5 0,-135.5 0,-22.5 242,-22.5 242,-135.5"/>
<text text-anchor="middle" x="121" y="-120.3" font-family="Open Sans" font-size="14.00">AOU&#45;01: The integrator</text>
<text text-anchor="middle" x="121" y="-105.3" font-family="Open Sans" font-size="14.00">shall report problems</text>
<text text-anchor="middle" x="121" y="-90.3" font-family="Open Sans" font-size="14.00">with nlohmann/json&#39;s</text>
<text text-anchor="middle" x="121" y="-75.3" font-family="Open Sans" font-size="14.00">implementation to the</text>
<text text-anchor="middle" x="121" y="-60.3" font-family="Open Sans" font-size="14.00">upstream nlohmann/json project</text>
<text text-anchor="middle" x="121" y="-45.3" font-family="Open Sans" font-size="14.00">whenever a problem is</text>
<text text-anchor="middle" x="121" y="-30.3" font-family="Open Sans" font-size="14.00">detected. </text>
</a>
</g>
</g>
<!-- AOU&#45;02 -->
<g id="node3" class="node">
<title>AOU&#45;02</title>
<g id="a_node3"><a xlink:href="https://Erikhu1.github.io/json_dev/main/generated/AOU.html#aou-02" xlink:title="AOU&#45;02: The integrator\nshall ensure that the\nbuild environment used\nfor nlohmann/json is\nsupplied with consistent\ndependencies in every\nintegrating system. " target="_top">
<polygon fill="none" stroke="black" points="445.5,-135.5 260.5,-135.5 260.5,-22.5 445.5,-22.5 445.5,-135.5"/>
<text text-anchor="middle" x="353" y="-120.3" font-family="Open Sans" font-size="14.00">AOU&#45;02: The integrator</text>
<text text-anchor="middle" x="353" y="-105.3" font-family="Open Sans" font-size="14.00">shall ensure that the</text>
<text text-anchor="middle" x="353" y="-90.3" font-family="Open Sans" font-size="14.00">build environment used</text>
<text text-anchor="middle" x="353" y="-75.3" font-family="Open Sans" font-size="14.00">for nlohmann/json is</text>
<text text-anchor="middle" x="353" y="-60.3" font-family="Open Sans" font-size="14.00">supplied with consistent</text>
<text text-anchor="middle" x="353" y="-45.3" font-family="Open Sans" font-size="14.00">dependencies in every</text>
<text text-anchor="middle" x="353" y="-30.3" font-family="Open Sans" font-size="14.00">integrating system. </text>
</a>
</g>
</g>
<!-- AOU&#45;03 -->
<g id="node4" class="node">
<title>AOU&#45;03</title>
<g id="a_node4"><a xlink:href="https://Erikhu1.github.io/json_dev/main/generated/AOU.html#aou-03" xlink:title="AOU&#45;03: The integrator\nshall ensure that integrator&#45;controlled\nmirrors of the dependencies\nare persistently and\naccessibly stored as\nlong as the library nlohmann/json\nis used. " target="_top">
<polygon fill="none" stroke="black" points="742,-135.5 464,-135.5 464,-22.5 742,-22.5 742,-135.5"/>
<text text-anchor="middle" x="603" y="-120.3" font-family="Open Sans" font-size="14.00">AOU&#45;03: The integrator</text>
<text text-anchor="middle" x="603" y="-105.3" font-family="Open Sans" font-size="14.00">shall ensure that integrator&#45;controlled</text>
<text text-anchor="middle" x="603" y="-90.3" font-family="Open Sans" font-size="14.00">mirrors of the dependencies</text>
<text text-anchor="middle" x="603" y="-75.3" font-family="Open Sans" font-size="14.00">are persistently and</text>
<text text-anchor="middle" x="603" y="-60.3" font-family="Open Sans" font-size="14.00">accessibly stored as</text>
<text text-anchor="middle" x="603" y="-45.3" font-family="Open Sans" font-size="14.00">long as the library nlohmann/json</text>
<text text-anchor="middle" x="603" y="-30.3" font-family="Open Sans" font-size="14.00">is used. </text>
</a>
</g>
</g>
<!-- AOU&#45;04 -->
<g id="node5" class="node">
<title>AOU&#45;04</title>
<g id="a_node5"><a xlink:href="https://Erikhu1.github.io/json_dev/main/generated/AOU.html#aou-04" xlink:title="AOU&#45;04: The integrator\nshall ensure that exceptions\nare properly handled\nor turned off, whenever\nnlohmann/json is used.\n" target="_top">
<polygon fill="none" stroke="black" points="972,-120.5 760,-120.5 760,-37.5 972,-37.5 972,-120.5"/>
<text text-anchor="middle" x="866" y="-105.3" font-family="Open Sans" font-size="14.00">AOU&#45;04: The integrator</text>
<text text-anchor="middle" x="866" y="-90.3" font-family="Open Sans" font-size="14.00">shall ensure that exceptions</text>
<text text-anchor="middle" x="866" y="-75.3" font-family="Open Sans" font-size="14.00">are properly handled</text>
<text text-anchor="middle" x="866" y="-60.3" font-family="Open Sans" font-size="14.00">or turned off, whenever</text>
<text text-anchor="middle" x="866" y="-45.3" font-family="Open Sans" font-size="14.00">nlohmann/json is used.</text>
</a>
</g>
</g>
<!-- AOU&#45;05 -->
<g id="node6" class="node">
<title>AOU&#45;05</title>
<g id="a_node6"><a xlink:href="https://Erikhu1.github.io/json_dev/main/generated/AOU.html#aou-05" xlink:title="AOU&#45;05: The integrator\nshall ensure that input\nis encoded as UTF&#45;8 (as\nrequired by RFC8259)\nand that exceptions thrown\nin case other string\nformats are used are\nproperly handled " target="_top">
<polygon fill="none" stroke="black" points="1197.5,-143 990.5,-143 990.5,-15 1197.5,-15 1197.5,-143"/>
<text text-anchor="middle" x="1094" y="-127.8" font-family="Open Sans" font-size="14.00">AOU&#45;05: The integrator</text>
<text text-anchor="middle" x="1094" y="-112.8" font-family="Open Sans" font-size="14.00">shall ensure that input</text>
<text text-anchor="middle" x="1094" y="-97.8" font-family="Open Sans" font-size="14.00">is encoded as UTF&#45;8 (as</text>
<text text-anchor="middle" x="1094" y="-82.8" font-family="Open Sans" font-size="14.00">required by RFC8259)</text>
<text text-anchor="middle" x="1094" y="-67.8" font-family="Open Sans" font-size="14.00">and that exceptions thrown</text>
<text text-anchor="middle" x="1094" y="-52.8" font-family="Open Sans" font-size="14.00">in case other string</text>
<text text-anchor="middle" x="1094" y="-37.8" font-family="Open Sans" font-size="14.00">formats are used are</text>
<text text-anchor="middle" x="1094" y="-22.8" font-family="Open Sans" font-size="14.00">properly handled </text>
</a>
</g>
</g>
<!-- AOU&#45;06 -->
<g id="node7" class="node">
<title>AOU&#45;06</title>
<g id="a_node7"><a xlink:href="https://Erikhu1.github.io/json_dev/main/generated/AOU.html#aou-06" xlink:title="AOU&#45;06: The integrator\nshall ensure that brace\ninitialization (e.g.\njson j{true};) is not\nused with the types basic_json, json,\nor ordered_json, unless\nan object or array is\ncreated. " target="_top">
<polygon fill="none" stroke="black" points="1488,-143 1216,-143 1216,-15 1488,-15 1488,-143"/>
<text text-anchor="middle" x="1352" y="-127.8" font-family="Open Sans" font-size="14.00">AOU&#45;06: The integrator</text>
<text text-anchor="middle" x="1352" y="-112.8" font-family="Open Sans" font-size="14.00">shall ensure that brace</text>
<text text-anchor="middle" x="1352" y="-97.8" font-family="Open Sans" font-size="14.00">initialization (e.g.</text>
<text text-anchor="middle" x="1352" y="-82.8" font-family="Open Sans" font-size="14.00">json j{true};) is not</text>
<text text-anchor="middle" x="1352" y="-67.8" font-family="Open Sans" font-size="14.00">used with the types basic_json, json,</text>
<text text-anchor="middle" x="1352" y="-52.8" font-family="Open Sans" font-size="14.00">or ordered_json, unless</text>
<text text-anchor="middle" x="1352" y="-37.8" font-family="Open Sans" font-size="14.00">an object or array is</text>
<text text-anchor="middle" x="1352" y="-22.8" font-family="Open Sans" font-size="14.00">created. </text>
</a>
</g>
</g>
<!-- AOU&#45;07 -->
<g id="node8" class="node">
<title>AOU&#45;07</title>
<g id="a_node8"><a xlink:href="https://Erikhu1.github.io/json_dev/main/generated/AOU.html#aou-07" xlink:title="AOU&#45;07: The integrator\nshall ensure that exceptions,\nwhich are expected during\nparsing with default\nparameters, are properly\nhandled whenever the\ninput is no valid JSON.\n" target="_top">
<polygon fill="none" stroke="black" points="1723.5,-135.5 1506.5,-135.5 1506.5,-22.5 1723.5,-22.5 1723.5,-135.5"/>
<text text-anchor="middle" x="1615" y="-120.3" font-family="Open Sans" font-size="14.00">AOU&#45;07: The integrator</text>
<text text-anchor="middle" x="1615" y="-105.3" font-family="Open Sans" font-size="14.00">shall ensure that exceptions,</text>
<text text-anchor="middle" x="1615" y="-90.3" font-family="Open Sans" font-size="14.00">which are expected during</text>
<text text-anchor="middle" x="1615" y="-75.3" font-family="Open Sans" font-size="14.00">parsing with default</text>
<text text-anchor="middle" x="1615" y="-60.3" font-family="Open Sans" font-size="14.00">parameters, are properly</text>
<text text-anchor="middle" x="1615" y="-45.3" font-family="Open Sans" font-size="14.00">handled whenever the</text>
<text text-anchor="middle" x="1615" y="-30.3" font-family="Open Sans" font-size="14.00">input is no valid JSON.</text>
</a>
</g>
</g>
<!-- AOU&#45;08 -->
<g id="node9" class="node">
<title>AOU&#45;08</title>
<g id="a_node9"><a xlink:href="https://Erikhu1.github.io/json_dev/main/generated/AOU.html#aou-08" xlink:title="AOU&#45;08: The integrator\nshall ensure that all\nnecessary source files\nand built tools are mirrored,\ne.g. using a built server\nwithout internet access,\nas long as nlohmann/json\nis actively used. " target="_top">
<polygon fill="none" stroke="black" points="1950.5,-143 1741.5,-143 1741.5,-15 1950.5,-15 1950.5,-143"/>
<text text-anchor="middle" x="1846" y="-127.8" font-family="Open Sans" font-size="14.00">AOU&#45;08: The integrator</text>
<text text-anchor="middle" x="1846" y="-112.8" font-family="Open Sans" font-size="14.00">shall ensure that all</text>
<text text-anchor="middle" x="1846" y="-97.8" font-family="Open Sans" font-size="14.00">necessary source files</text>
<text text-anchor="middle" x="1846" y="-82.8" font-family="Open Sans" font-size="14.00">and built tools are mirrored,</text>
<text text-anchor="middle" x="1846" y="-67.8" font-family="Open Sans" font-size="14.00">e.g. using a built server</text>
<text text-anchor="middle" x="1846" y="-52.8" font-family="Open Sans" font-size="14.00">without internet access,</text>
<text text-anchor="middle" x="1846" y="-37.8" font-family="Open Sans" font-size="14.00">as long as nlohmann/json</text>
<text text-anchor="middle" x="1846" y="-22.8" font-family="Open Sans" font-size="14.00">is actively used. </text>
</a>
</g>
</g>
<!-- AOU&#45;09 -->
<g id="node10" class="node">
<title>AOU&#45;09</title>
<g id="a_node10"><a xlink:href="https://Erikhu1.github.io/json_dev/main/generated/AOU.html#aou-09" xlink:title="AOU&#45;09: The integrator\nshall ensure that advanced\nwarning indicators for\nmisbehaviours are identified,\nand monitoring mechanisms\nare specified, verified\nand validated based on\nanalysis. " target="_top">
<polygon fill="none" stroke="black" points="2187.5,-143 1968.5,-143 1968.5,-15 2187.5,-15 2187.5,-143"/>
<text text-anchor="middle" x="2078" y="-127.8" font-family="Open Sans" font-size="14.00">AOU&#45;09: The integrator</text>
<text text-anchor="middle" x="2078" y="-112.8" font-family="Open Sans" font-size="14.00">shall ensure that advanced</text>
<text text-anchor="middle" x="2078" y="-97.8" font-family="Open Sans" font-size="14.00">warning indicators for</text>
<text text-anchor="middle" x="2078" y="-82.8" font-family="Open Sans" font-size="14.00">misbehaviours are identified,</text>
<text text-anchor="middle" x="2078" y="-67.8" font-family="Open Sans" font-size="14.00">and monitoring mechanisms</text>
<text text-anchor="middle" x="2078" y="-52.8" font-family="Open Sans" font-size="14.00">are specified, verified</text>
<text text-anchor="middle" x="2078" y="-37.8" font-family="Open Sans" font-size="14.00">and validated based on</text>
<text text-anchor="middle" x="2078" y="-22.8" font-family="Open Sans" font-size="14.00">analysis. </text>
</a>
</g>
</g>
<!-- AOU&#45;10_COMBINED -->
<g id="node11" class="node">
<title>AOU&#45;10_COMBINED</title>
<g id="a_node11"><a xlink:href="https://Erikhu1.github.io/json_dev/main/generated/AOU.html#aou-10_combined" xlink:title="AOU&#45;10_COMBINED: The\nintegrator shall evaluate\nthe provided evidence\nand supplement it where\nnecessary, whenever the\ntrustability documentation\nof nlohmann/json is reviewed.\n" target="_top">
<polygon fill="none" stroke="black" points="2430,-135.5 2206,-135.5 2206,-22.5 2430,-22.5 2430,-135.5"/>
<text text-anchor="middle" x="2318" y="-120.3" font-family="Open Sans" font-size="14.00">AOU&#45;10_COMBINED: The</text>
<text text-anchor="middle" x="2318" y="-105.3" font-family="Open Sans" font-size="14.00">integrator shall evaluate</text>
<text text-anchor="middle" x="2318" y="-90.3" font-family="Open Sans" font-size="14.00">the provided evidence</text>
<text text-anchor="middle" x="2318" y="-75.3" font-family="Open Sans" font-size="14.00">and supplement it where</text>
<text text-anchor="middle" x="2318" y="-60.3" font-family="Open Sans" font-size="14.00">necessary, whenever the</text>
<text text-anchor="middle" x="2318" y="-45.3" font-family="Open Sans" font-size="14.00">trustability documentation</text>
<text text-anchor="middle" x="2318" y="-30.3" font-family="Open Sans" font-size="14.00">of nlohmann/json is reviewed.</text>
</a>
</g>
</g>
<!-- AOU&#45;14 -->
<g id="node12" class="node">
<title>AOU&#45;14</title>
<g id="a_node12"><a xlink:href="https://Erikhu1.github.io/json_dev/main/generated/AOU.html#aou-14" xlink:title="AOU&#45;14: The integrator\nshall ensure that nlohmann/json\nlibrary is built with\ntools from the provided\nmatrix specification,\nwhenever nlohmann/json\nis used. (not yet provided)\n" target="_top">
<polygon fill="none" stroke="black" points="2688,-135.5 2448,-135.5 2448,-22.5 2688,-22.5 2688,-135.5"/>
<text text-anchor="middle" x="2568" y="-120.3" font-family="Open Sans" font-size="14.00">AOU&#45;14: The integrator</text>
<text text-anchor="middle" x="2568" y="-105.3" font-family="Open Sans" font-size="14.00">shall ensure that nlohmann/json</text>
<text text-anchor="middle" x="2568" y="-90.3" font-family="Open Sans" font-size="14.00">library is built with</text>
<text text-anchor="middle" x="2568" y="-75.3" font-family="Open Sans" font-size="14.00">tools from the provided</text>
<text text-anchor="middle" x="2568" y="-60.3" font-family="Open Sans" font-size="14.00">matrix specification,</text>
<text text-anchor="middle" x="2568" y="-45.3" font-family="Open Sans" font-size="14.00">whenever nlohmann/json</text>
<text text-anchor="middle" x="2568" y="-30.3" font-family="Open Sans" font-size="14.00">is used. (not yet provided)</text>
</a>
</g>
</g>
<!-- AOU&#45;15 -->
<g id="node13" class="node">
<title>AOU&#45;15</title>
<g id="a_node13"><a xlink:href="https://Erikhu1.github.io/json_dev/main/generated/AOU.html#aou-15" xlink:title="AOU&#45;15: The integrator\nshall maintain mirrors\nfor all code and tools\nutilized in testing as\nlong as nlohmann/json\nis actively used. " target="_top">
<polygon fill="none" stroke="black" points="2885.5,-128 2706.5,-128 2706.5,-30 2885.5,-30 2885.5,-128"/>
<text text-anchor="middle" x="2796" y="-112.8" font-family="Open Sans" font-size="14.00">AOU&#45;15: The integrator</text>
<text text-anchor="middle" x="2796" y="-97.8" font-family="Open Sans" font-size="14.00">shall maintain mirrors</text>
<text text-anchor="middle" x="2796" y="-82.8" font-family="Open Sans" font-size="14.00">for all code and tools</text>
<text text-anchor="middle" x="2796" y="-67.8" font-family="Open Sans" font-size="14.00">utilized in testing as</text>
<text text-anchor="middle" x="2796" y="-52.8" font-family="Open Sans" font-size="14.00">long as nlohmann/json</text>
<text text-anchor="middle" x="2796" y="-37.8" font-family="Open Sans" font-size="14.00">is actively used. </text>
</a>
</g>
</g>
<!-- AOU&#45;16 -->
<g id="node14" class="node">
<title>AOU&#45;16</title>
<g id="a_node14"><a xlink:href="https://Erikhu1.github.io/json_dev/main/generated/AOU.html#aou-16" xlink:title="AOU&#45;16: The integrator\nshall use C++ versions\nand compilers that are\ntested in the CI pipeline,\nwhenever nlohmann/json\nis used. " target="_top">
<polygon fill="none" stroke="black" points="3096,-128 2904,-128 2904,-30 3096,-30 3096,-128"/>
<text text-anchor="middle" x="3000" y="-112.8" font-family="Open Sans" font-size="14.00">AOU&#45;16: The integrator</text>
<text text-anchor="middle" x="3000" y="-97.8" font-family="Open Sans" font-size="14.00">shall use C++ versions</text>
<text text-anchor="middle" x="3000" y="-82.8" font-family="Open Sans" font-size="14.00">and compilers that are</text>
<text text-anchor="middle" x="3000" y="-67.8" font-family="Open Sans" font-size="14.00">tested in the CI pipeline,</text>
<text text-anchor="middle" x="3000" y="-52.8" font-family="Open Sans" font-size="14.00">whenever nlohmann/json</text>
<text text-anchor="middle" x="3000" y="-37.8" font-family="Open Sans" font-size="14.00">is used. </text>
</a>
</g>
</g>
<!-- AOU&#45;17 -->
<g id="node15" class="node">
<title>AOU&#45;17</title>
<g id="a_node15"><a xlink:href="https://Erikhu1.github.io/json_dev/main/generated/AOU.html#aou-17" xlink:title="AOU&#45;17: The integrator\nshall identify misbehaviours\nfor nlohmann/json, define\nappropriate mitigations,\nand ensure that these\nmitigations are thoroughly\nvalidated, whenever using\nnlohmann/json. " target="_top">
<polygon fill="none" stroke="black" points="3326,-143 3114,-143 3114,-15 3326,-15 3326,-143"/>
<text text-anchor="middle" x="3220" y="-127.8" font-family="Open Sans" font-size="14.00">AOU&#45;17: The integrator</text>
<text text-anchor="middle" x="3220" y="-112.8" font-family="Open Sans" font-size="14.00">shall identify misbehaviours</text>
<text text-anchor="middle" x="3220" y="-97.8" font-family="Open Sans" font-size="14.00">for nlohmann/json, define</text>
<text text-anchor="middle" x="3220" y="-82.8" font-family="Open Sans" font-size="14.00">appropriate mitigations,</text>
<text text-anchor="middle" x="3220" y="-67.8" font-family="Open Sans" font-size="14.00">and ensure that these</text>
<text text-anchor="middle" x="3220" y="-52.8" font-family="Open Sans" font-size="14.00">mitigations are thoroughly</text>
<text text-anchor="middle" x="3220" y="-37.8" font-family="Open Sans" font-size="14.00">validated, whenever using</text>
<text text-anchor="middle" x="3220" y="-22.8" font-family="Open Sans" font-size="14.00">nlohmann/json. </text>
</a>
</g>
</g>
<!-- AOU&#45;18 -->
<g id="node16" class="node">
<title>AOU&#45;18</title>
<g id="a_node16"><a xlink:href="https://Erikhu1.github.io/json_dev/main/generated/AOU.html#aou-18" xlink:title="AOU&#45;18: The integrator\nshall ensure that monitoring\ndata from deployed software\nis accurately captured,\nsecurely stored, and\nwell&#45;documented for analysis,\nas long as nlohmann/json\nis actively used. " target="_top">
<polygon fill="none" stroke="black" points="3569.5,-143 3344.5,-143 3344.5,-15 3569.5,-15 3569.5,-143"/>
<text text-anchor="middle" x="3457" y="-127.8" font-family="Open Sans" font-size="14.00">AOU&#45;18: The integrator</text>
<text text-anchor="middle" x="3457" y="-112.8" font-family="Open Sans" font-size="14.00">shall ensure that monitoring</text>
<text text-anchor="middle" x="3457" y="-97.8" font-family="Open Sans" font-size="14.00">data from deployed software</text>
<text text-anchor="middle" x="3457" y="-82.8" font-family="Open Sans" font-size="14.00">is accurately captured,</text>
<text text-anchor="middle" x="3457" y="-67.8" font-family="Open Sans" font-size="14.00">securely stored, and</text>
<text text-anchor="middle" x="3457" y="-52.8" font-family="Open Sans" font-size="14.00">well&#45;documented for analysis,</text>
<text text-anchor="middle" x="3457" y="-37.8" font-family="Open Sans" font-size="14.00">as long as nlohmann/json</text>
<text text-anchor="middle" x="3457" y="-22.8" font-family="Open Sans" font-size="14.00">is actively used. </text>
</a>
</g>
</g>
<!-- AOU&#45;19 -->
<g id="node17" class="node">
<title>AOU&#45;19</title>
<g id="a_node17"><a xlink:href="https://Erikhu1.github.io/json_dev/main/generated/AOU.html#aou-19" xlink:title="AOU&#45;19: The integrator\nshall analyze monitoring\ndata systematically to\ndetect trends and identify\nissues, as long as nlohmann/json\nis actively used. " target="_top">
<polygon fill="none" stroke="black" points="3834.5,-128 3587.5,-128 3587.5,-30 3834.5,-30 3834.5,-128"/>
<text text-anchor="middle" x="3711" y="-112.8" font-family="Open Sans" font-size="14.00">AOU&#45;19: The integrator</text>
<text text-anchor="middle" x="3711" y="-97.8" font-family="Open Sans" font-size="14.00">shall analyze monitoring</text>
<text text-anchor="middle" x="3711" y="-82.8" font-family="Open Sans" font-size="14.00">data systematically to</text>
<text text-anchor="middle" x="3711" y="-67.8" font-family="Open Sans" font-size="14.00">detect trends and identify</text>
<text text-anchor="middle" x="3711" y="-52.8" font-family="Open Sans" font-size="14.00">issues, as long as nlohmann/json</text>
<text text-anchor="middle" x="3711" y="-37.8" font-family="Open Sans" font-size="14.00">is actively used. </text>
</a>
</g>
</g>
<!-- AOU&#45;20 -->
<g id="node18" class="node">
<title>AOU&#45;20</title>
<g id="a_node18"><a xlink:href="https://Erikhu1.github.io/json_dev/main/generated/AOU.html#aou-20" xlink:title="AOU&#45;20: The integrator\nshall ensure that the\nkeys within an object\nare unique, whenever\nan object is to be parsed\nby nlohmann/json. " target="_top">
<polygon fill="none" stroke="black" points="4041,-128 3853,-128 3853,-30 4041,-30 4041,-128"/>
<text text-anchor="middle" x="3947" y="-112.8" font-family="Open Sans" font-size="14.00">AOU&#45;20: The integrator</text>
<text text-anchor="middle" x="3947" y="-97.8" font-family="Open Sans" font-size="14.00">shall ensure that the</text>
<text text-anchor="middle" x="3947" y="-82.8" font-family="Open Sans" font-size="14.00">keys within an object</text>
<text text-anchor="middle" x="3947" y="-67.8" font-family="Open Sans" font-size="14.00">are unique, whenever</text>
<text text-anchor="middle" x="3947" y="-52.8" font-family="Open Sans" font-size="14.00">an object is to be parsed</text>
<text text-anchor="middle" x="3947" y="-37.8" font-family="Open Sans" font-size="14.00">by nlohmann/json. </text>
</a>
</g>
</g>
<!-- AOU&#45;21 -->
<g id="node19" class="node">
<title>AOU&#45;21</title>
<g id="a_node19"><a xlink:href="https://Erikhu1.github.io/json_dev/main/generated/AOU.html#aou-21" xlink:title="AOU&#45;21: The integrator\nshall ensure that a string\ndoes not contain escaped\nunpaired utf&#45;16 surrogate\ncharacters, and that\nexceptions are properly\nhandled, whenever a string\nis to be parsed by nlohmann/json.\n" target="_top">
<polygon fill="none" stroke="black" points="4313,-143 4059,-143 4059,-15 4313,-15 4313,-143"/>
<text text-anchor="middle" x="4186" y="-127.8" font-family="Open Sans" font-size="14.00">AOU&#45;21: The integrator</text>
<text text-anchor="middle" x="4186" y="-112.8" font-family="Open Sans" font-size="14.00">shall ensure that a string</text>
<text text-anchor="middle" x="4186" y="-97.8" font-family="Open Sans" font-size="14.00">does not contain escaped</text>
<text text-anchor="middle" x="4186" y="-82.8" font-family="Open Sans" font-size="14.00">unpaired utf&#45;16 surrogate</text>
<text text-anchor="middle" x="4186" y="-67.8" font-family="Open Sans" font-size="14.00">characters, and that</text>
<text text-anchor="middle" x="4186" y="-52.8" font-family="Open Sans" font-size="14.00">exceptions are properly</text>
<text text-anchor="middle" x="4186" y="-37.8" font-family="Open Sans" font-size="14.00">handled, whenever a string</text>
<text text-anchor="middle" x="4186" y="-22.8" font-family="Open Sans" font-size="14.00">is to be parsed by nlohmann/json.</text>
</a>
</g>
</g>
<!-- AOU&#45;22 -->
<g id="node20" class="node">
<title>AOU&#45;22</title>
<g id="a_node20"><a xlink:href="https://Erikhu1.github.io/json_dev/main/generated/AOU.html#aou-22" xlink:title="AOU&#45;22: The integrator\nshall ensure that numbers\nare written in base 10,\nand that exceptions and\nmisbehaviours in case\nthat any other base is\nused are properly handled\nand mitigated, whenever\na number is parsed by\nnlohmann/json. " target="_top">
<polygon fill="none" stroke="black" points="4531,-158 4331,-158 4331,0 4531,0 4531,-158"/>
<text text-anchor="middle" x="4431" y="-142.8" font-family="Open Sans" font-size="14.00">AOU&#45;22: The integrator</text>
<text text-anchor="middle" x="4431" y="-127.8" font-family="Open Sans" font-size="14.00">shall ensure that numbers</text>
<text text-anchor="middle" x="4431" y="-112.8" font-family="Open Sans" font-size="14.00">are written in base 10,</text>
<text text-anchor="middle" x="4431" y="-97.8" font-family="Open Sans" font-size="14.00">and that exceptions and</text>
<text text-anchor="middle" x="4431" y="-82.8" font-family="Open Sans" font-size="14.00">misbehaviours in case</text>
<text text-anchor="middle" x="4431" y="-67.8" font-family="Open Sans" font-size="14.00">that any other base is</text>
<text text-anchor="middle" x="4431" y="-52.8" font-family="Open Sans" font-size="14.00">used are properly handled</text>
<text text-anchor="middle" x="4431" y="-37.8" font-family="Open Sans" font-size="14.00">and mitigated, whenever</text>
<text text-anchor="middle" x="4431" y="-22.8" font-family="Open Sans" font-size="14.00">a number is parsed by</text>
<text text-anchor="middle" x="4431" y="-7.8" font-family="Open Sans" font-size="14.00">nlohmann/json. </text>
</a>
</g>
</g>
<!-- AOU&#45;23 -->
<g id="node21" class="node">
<title>AOU&#45;23</title>
<g id="a_node21"><a xlink:href="https://Erikhu1.github.io/json_dev/main/generated/AOU.html#aou-23" xlink:title="AOU&#45;23: The integrator\nshall ensure that data\nare complete and error&#45;free,\nwhenever they are transmitted\nto nlohmann/json. " target="_top">
<polygon fill="none" stroke="black" points="4781,-120.5 4549,-120.5 4549,-37.5 4781,-37.5 4781,-120.5"/>
<text text-anchor="middle" x="4665" y="-105.3" font-family="Open Sans" font-size="14.00">AOU&#45;23: The integrator</text>
<text text-anchor="middle" x="4665" y="-90.3" font-family="Open Sans" font-size="14.00">shall ensure that data</text>
<text text-anchor="middle" x="4665" y="-75.3" font-family="Open Sans" font-size="14.00">are complete and error&#45;free,</text>
<text text-anchor="middle" x="4665" y="-60.3" font-family="Open Sans" font-size="14.00">whenever they are transmitted</text>
<text text-anchor="middle" x="4665" y="-45.3" font-family="Open Sans" font-size="14.00">to nlohmann/json. </text>
</a>
</g>
</g>
<!-- AOU&#45;24 -->
<g id="node22" class="node">
<title>AOU&#45;24</title>
<g id="a_node22"><a xlink:href="https://Erikhu1.github.io/json_dev/main/generated/AOU.html#aou-24" xlink:title="AOU&#45;24: The integrator\nshall ensure that the\ndata do not change during\nreading, whenever transmitted\nto nlohmann/json. " target="_top">
<polygon fill="none" stroke="black" points="5031,-120.5 4799,-120.5 4799,-37.5 5031,-37.5 5031,-120.5"/>
<text text-anchor="middle" x="4915" y="-105.3" font-family="Open Sans" font-size="14.00">AOU&#45;24: The integrator</text>
<text text-anchor="middle" x="4915" y="-90.3" font-family="Open Sans" font-size="14.00">shall ensure that the</text>
<text text-anchor="middle" x="4915" y="-75.3" font-family="Open Sans" font-size="14.00">data do not change during</text>
<text text-anchor="middle" x="4915" y="-60.3" font-family="Open Sans" font-size="14.00">reading, whenever transmitted</text>
<text text-anchor="middle" x="4915" y="-45.3" font-family="Open Sans" font-size="14.00">to nlohmann/json. </text>
</a>
</g>
</g>
<!-- AOU&#45;25 -->
<g id="node23" class="node">
<title>AOU&#45;25</title>
<g id="a_node23"><a xlink:href="https://Erikhu1.github.io/json_dev/main/generated/AOU.html#aou-25" xlink:title="AOU&#45;25: The integrator\nshall convince themselves\nthat the behaviour of\nthe used C++ standard\nlibrary is known, verified\nand validated. " target="_top">
<polygon fill="none" stroke="black" points="5248.5,-128 5049.5,-128 5049.5,-30 5248.5,-30 5248.5,-128"/>
<text text-anchor="middle" x="5149" y="-112.8" font-family="Open Sans" font-size="14.00">AOU&#45;25: The integrator</text>
<text text-anchor="middle" x="5149" y="-97.8" font-family="Open Sans" font-size="14.00">shall convince themselves</text>
<text text-anchor="middle" x="5149" y="-82.8" font-family="Open Sans" font-size="14.00">that the behaviour of</text>
<text text-anchor="middle" x="5149" y="-67.8" font-family="Open Sans" font-size="14.00">the used C++ standard</text>
<text text-anchor="middle" x="5149" y="-52.8" font-family="Open Sans" font-size="14.00">library is known, verified</text>
<text text-anchor="middle" x="5149" y="-37.8" font-family="Open Sans" font-size="14.00">and validated. </text>
</a>
</g>
</g>
<!-- AOU&#45;26 -->
<g id="node24" class="node">
<title>AOU&#45;26</title>
<g id="a_node24"><a xlink:href="https://Erikhu1.github.io/json_dev/main/generated/AOU.html#aou-26" xlink:title="AOU&#45;26: The integrator\nshall convince themselves\nthat the misbehaviours\nof the C++ standard library\nand mitigations are known,\nverified and validated.\n" target="_top">
<polygon fill="none" stroke="black" points="5477.5,-128 5266.5,-128 5266.5,-30 5477.5,-30 5477.5,-128"/>
<text text-anchor="middle" x="5372" y="-112.8" font-family="Open Sans" font-size="14.00">AOU&#45;26: The integrator</text>
<text text-anchor="middle" x="5372" y="-97.8" font-family="Open Sans" font-size="14.00">shall convince themselves</text>
<text text-anchor="middle" x="5372" y="-82.8" font-family="Open Sans" font-size="14.00">that the misbehaviours</text>
<text text-anchor="middle" x="5372" y="-67.8" font-family="Open Sans" font-size="14.00">of the C++ standard library</text>
<text text-anchor="middle" x="5372" y="-52.8" font-family="Open Sans" font-size="14.00">and mitigations are known,</text>
<text text-anchor="middle" x="5372" y="-37.8" font-family="Open Sans" font-size="14.00">verified and validated.</text>
</a>
</g>
</g>
<!-- AOU&#45;27 -->
<g id="node25" class="node">
<title>AOU&#45;27</title>
<g id="a_node25"><a xlink:href="https://Erikhu1.github.io/json_dev/main/generated/AOU.html#aou-27" xlink:title="AOU&#45;27: The integrator\nshall ensure that ChangeLog.md\nis updated whenever the\nlocal mirror of nlohmann/json\nis updated. " target="_top">
<polygon fill="none" stroke="black" points="5738,-120.5 5496,-120.5 5496,-37.5 5738,-37.5 5738,-120.5"/>
<text text-anchor="middle" x="5617" y="-105.3" font-family="Open Sans" font-size="14.00">AOU&#45;27: The integrator</text>
<text text-anchor="middle" x="5617" y="-90.3" font-family="Open Sans" font-size="14.00">shall ensure that ChangeLog.md</text>
<text text-anchor="middle" x="5617" y="-75.3" font-family="Open Sans" font-size="14.00">is updated whenever the</text>
<text text-anchor="middle" x="5617" y="-60.3" font-family="Open Sans" font-size="14.00">local mirror of nlohmann/json</text>
<text text-anchor="middle" x="5617" y="-45.3" font-family="Open Sans" font-size="14.00">is updated. </text>
</a>
</g>
</g>
<!-- AOU&#45;28 -->
<g id="node26" class="node">
<title>AOU&#45;28</title>
<g id="a_node26"><a xlink:href="https://Erikhu1.github.io/json_dev/main/generated/AOU.html#aou-28" xlink:title="AOU&#45;28: The integrator\nshall ensure that the\nknown open bugs of nlohmann/json\nare regularly reviewed\non their impact on the\nuse of the documented\nversion as long as the\nlibrary is actively used.\n" target="_top">
<polygon fill="none" stroke="black" points="6022,-143 5756,-143 5756,-15 6022,-15 6022,-143"/>
<text text-anchor="middle" x="5889" y="-127.8" font-family="Open Sans" font-size="14.00">AOU&#45;28: The integrator</text>
<text text-anchor="middle" x="5889" y="-112.8" font-family="Open Sans" font-size="14.00">shall ensure that the</text>
<text text-anchor="middle" x="5889" y="-97.8" font-family="Open Sans" font-size="14.00">known open bugs of nlohmann/json</text>
<text text-anchor="middle" x="5889" y="-82.8" font-family="Open Sans" font-size="14.00">are regularly reviewed</text>
<text text-anchor="middle" x="5889" y="-67.8" font-family="Open Sans" font-size="14.00">on their impact on the</text>
<text text-anchor="middle" x="5889" y="-52.8" font-family="Open Sans" font-size="14.00">use of the documented</text>
<text text-anchor="middle" x="5889" y="-37.8" font-family="Open Sans" font-size="14.00">version as long as the</text>
<text text-anchor="middle" x="5889" y="-22.8" font-family="Open Sans" font-size="14.00">library is actively used.</text>
</a>
</g>
</g>
<!-- TA&#45;CONSTRAINTS -->
<g id="node27" class="node">
<title>TA&#45;CONSTRAINTS</title>
<g id="a_node27"><a xlink:href="https://Erikhu1.github.io/json_dev/main/_images/custom_TA-CONSTRAINTS_graph.svg" xlink:title="TA&#45;CONSTRAINTS: Constraints\non adaptation and deployment\nof nlohmann/json library\nare specified. " target="_top">
<polygon fill="none" stroke="black" points="3115,-370 2885,-370 2885,-302 3115,-302 3115,-370"/>
<text text-anchor="middle" x="3000" y="-354.8" font-family="Open Sans" font-size="14.00">TA&#45;CONSTRAINTS: Constraints</text>
<text text-anchor="middle" x="3000" y="-339.8" font-family="Open Sans" font-size="14.00">on adaptation and deployment</text>
<text text-anchor="middle" x="3000" y="-324.8" font-family="Open Sans" font-size="14.00">of nlohmann/json library</text>
<text text-anchor="middle" x="3000" y="-309.8" font-family="Open Sans" font-size="14.00">are specified. </text>
</a>
</g>
</g>
<!-- TA&#45;CONSTRAINTS&#45;&gt;AOU&#45;01 -->
<g id="edge10" class="edge">
<title>TA&#45;CONSTRAINTS&#45;&gt;AOU&#45;01</title>
<path fill="none" stroke="black" d="M2884.72,-334.79C2429.1,-332.85 754.2,-314.96 251,-158 237.02,-153.64 222.97,-147.49 209.54,-140.53"/>
<polygon fill="black" stroke="black" points="210.82,-137.24 200.36,-135.59 207.51,-143.41 210.82,-137.24"/>
</g>
<!-- TA&#45;CONSTRAINTS&#45;&gt;AOU&#45;02 -->
<g id="edge11" class="edge">
<title>TA&#45;CONSTRAINTS&#45;&gt;AOU&#45;02</title>
<path fill="none" stroke="black" d="M2884.68,-335.71C2449.53,-337.07 908.83,-329.41 455,-158 443.84,-153.78 432.89,-147.92 422.55,-141.29"/>
<polygon fill="black" stroke="black" points="424.26,-138.22 414.01,-135.55 420.36,-144.03 424.26,-138.22"/>
</g>
<!-- TA&#45;CONSTRAINTS&#45;&gt;AOU&#45;03 -->
<g id="edge12" class="edge">
<title>TA&#45;CONSTRAINTS&#45;&gt;AOU&#45;03</title>
<path fill="none" stroke="black" d="M2884.98,-332.08C2485.19,-320.97 1158.25,-275.89 751,-158 735.14,-153.41 719.03,-147.01 703.56,-139.84"/>
<polygon fill="black" stroke="black" points="705.06,-136.67 694.53,-135.53 702.05,-142.99 705.06,-136.67"/>
</g>
<!-- TA&#45;CONSTRAINTS&#45;&gt;AOU&#45;04 -->
<g id="edge2" class="edge">
<title>TA&#45;CONSTRAINTS&#45;&gt;AOU&#45;04</title>
<path fill="none" stroke="black" d="M2884.75,-332.49C2511,-323.17 1336.14,-284.31 981,-158 960.49,-150.71 940.15,-138.86 922.41,-126.58"/>
<polygon fill="black" stroke="black" points="924.1,-123.49 913.92,-120.54 920.04,-129.19 924.1,-123.49"/>
</g>
<!-- TA&#45;CONSTRAINTS&#45;&gt;AOU&#45;05 -->
<g id="edge3" class="edge">
<title>TA&#45;CONSTRAINTS&#45;&gt;AOU&#45;05</title>
<path fill="none" stroke="black" d="M2884.76,-331.14C2539.41,-318.41 1517.68,-271.86 1207,-158 1199.45,-155.23 1191.92,-151.84 1184.55,-148.03"/>
<polygon fill="black" stroke="black" points="1185.75,-144.7 1175.29,-143 1182.41,-150.85 1185.75,-144.7"/>
</g>
<!-- TA&#45;CONSTRAINTS&#45;&gt;AOU&#45;06 -->
<g id="edge4" class="edge">
<title>TA&#45;CONSTRAINTS&#45;&gt;AOU&#45;06</title>
<path fill="none" stroke="black" d="M2884.94,-327.05C2579.98,-305.1 1756.51,-239.81 1497,-158 1487.29,-154.94 1477.48,-151.22 1467.77,-147.09"/>
<polygon fill="black" stroke="black" points="1469.07,-143.83 1458.51,-143 1466.25,-150.24 1469.07,-143.83"/>
</g>
<!-- TA&#45;CONSTRAINTS&#45;&gt;AOU&#45;07 -->
<g id="edge5" class="edge">
<title>TA&#45;CONSTRAINTS&#45;&gt;AOU&#45;07</title>
<path fill="none" stroke="black" d="M2884.82,-325.54C2613.73,-302.22 1942.42,-238.01 1732,-158 1720,-153.44 1707.99,-147.46 1696.48,-140.83"/>
<polygon fill="black" stroke="black" points="1698.17,-137.77 1687.79,-135.66 1694.59,-143.78 1698.17,-137.77"/>
</g>
<!-- TA&#45;CONSTRAINTS&#45;&gt;AOU&#45;08 -->
<g id="edge13" class="edge">
<title>TA&#45;CONSTRAINTS&#45;&gt;AOU&#45;08</title>
<path fill="none" stroke="black" d="M2884.68,-331.58C2687.83,-322.25 2277.4,-287.5 1959,-158 1951.86,-155.1 1944.72,-151.68 1937.69,-147.93"/>
<polygon fill="black" stroke="black" points="1939.3,-144.82 1928.86,-143.01 1935.89,-150.93 1939.3,-144.82"/>
</g>
<!-- TA&#45;CONSTRAINTS&#45;&gt;AOU&#45;09 -->
<g id="edge14" class="edge">
<title>TA&#45;CONSTRAINTS&#45;&gt;AOU&#45;09</title>
<path fill="none" stroke="black" d="M2884.99,-322.94C2725.43,-303.27 2430.2,-256.21 2197,-158 2189.88,-155 2182.72,-151.57 2175.64,-147.86"/>
<polygon fill="black" stroke="black" points="2177.18,-144.71 2166.72,-143.01 2173.84,-150.86 2177.18,-144.71"/>
</g>
<!-- TA&#45;CONSTRAINTS&#45;&gt;AOU&#45;10_COMBINED -->
<g id="edge26" class="edge">
<title>TA&#45;CONSTRAINTS&#45;&gt;AOU&#45;10_COMBINED</title>
<path fill="none" stroke="black" d="M2884.89,-308.3C2769.07,-279.24 2586.9,-227.47 2439,-158 2428.22,-152.94 2417.26,-147.05 2406.56,-140.84"/>
<polygon fill="black" stroke="black" points="2408.03,-137.64 2397.64,-135.54 2404.46,-143.66 2408.03,-137.64"/>
</g>
<!-- TA&#45;CONSTRAINTS&#45;&gt;AOU&#45;14 -->
<g id="edge6" class="edge">
<title>TA&#45;CONSTRAINTS&#45;&gt;AOU&#45;14</title>
<path fill="none" stroke="black" d="M2942.89,-301.98C2881.86,-266.62 2782.36,-208.74 2697,-158 2687.7,-152.47 2678.04,-146.69 2668.37,-140.89"/>
<polygon fill="black" stroke="black" points="2669.88,-137.72 2659.51,-135.57 2666.28,-143.72 2669.88,-137.72"/>
</g>
<!-- TA&#45;CONSTRAINTS&#45;&gt;AOU&#45;15 -->
<g id="edge15" class="edge">
<title>TA&#45;CONSTRAINTS&#45;&gt;AOU&#45;15</title>
<path fill="none" stroke="black" d="M2973.54,-301.92C2939.97,-259.97 2881.58,-186.98 2840.97,-136.21"/>
<polygon fill="black" stroke="black" points="2843.59,-133.88 2834.61,-128.26 2838.12,-138.25 2843.59,-133.88"/>
</g>
<!-- TA&#45;CONSTRAINTS&#45;&gt;AOU&#45;16 -->
<g id="edge7" class="edge">
<title>TA&#45;CONSTRAINTS&#45;&gt;AOU&#45;16</title>
<path fill="none" stroke="black" d="M3000,-301.92C3000,-260.57 3000,-189.07 3000,-138.42"/>
<polygon fill="black" stroke="black" points="3003.5,-138.26 3000,-128.26 2996.5,-138.26 3003.5,-138.26"/>
</g>
<!-- TA&#45;CONSTRAINTS&#45;&gt;AOU&#45;17 -->
<g id="edge16" class="edge">
<title>TA&#45;CONSTRAINTS&#45;&gt;AOU&#45;17</title>
<path fill="none" stroke="black" d="M3028.54,-301.92C3061.37,-263.87 3116.23,-200.28 3158.83,-150.9"/>
<polygon fill="black" stroke="black" points="3161.67,-152.96 3165.55,-143.11 3156.37,-148.39 3161.67,-152.96"/>
</g>
<!-- TA&#45;CONSTRAINTS&#45;&gt;AOU&#45;18 -->
<g id="edge17" class="edge">
<title>TA&#45;CONSTRAINTS&#45;&gt;AOU&#45;18</title>
<path fill="none" stroke="black" d="M3066.35,-301.99C3134.58,-267.57 3243.49,-211.31 3335,-158 3340.35,-154.89 3345.79,-151.65 3351.27,-148.34"/>
<polygon fill="black" stroke="black" points="3353.17,-151.29 3359.89,-143.1 3349.53,-145.31 3353.17,-151.29"/>
</g>
<!-- TA&#45;CONSTRAINTS&#45;&gt;AOU&#45;19 -->
<g id="edge18" class="edge">
<title>TA&#45;CONSTRAINTS&#45;&gt;AOU&#45;19</title>
<path fill="none" stroke="black" d="M3115.22,-308.37C3234.18,-278.92 3423.79,-226.42 3579,-158 3595.24,-150.84 3611.97,-142.13 3627.83,-133.14"/>
<polygon fill="black" stroke="black" points="3629.62,-136.15 3636.55,-128.14 3626.13,-130.08 3629.62,-136.15"/>
</g>
<!-- TA&#45;CONSTRAINTS&#45;&gt;AOU&#45;20 -->
<g id="edge8" class="edge">
<title>TA&#45;CONSTRAINTS&#45;&gt;AOU&#45;20</title>
<path fill="none" stroke="black" d="M3115.19,-326.9C3282.45,-311.66 3599.27,-269.48 3844,-158 3857.9,-151.67 3871.69,-143.19 3884.45,-134.15"/>
<polygon fill="black" stroke="black" points="3886.66,-136.87 3892.67,-128.15 3882.53,-131.21 3886.66,-136.87"/>
</g>
<!-- TA&#45;CONSTRAINTS&#45;&gt;AOU&#45;21 -->
<g id="edge9" class="edge">
<title>TA&#45;CONSTRAINTS&#45;&gt;AOU&#45;21</title>
<path fill="none" stroke="black" d="M3115.21,-328.86C3312.1,-315.49 3723.67,-274.86 4050,-158 4058.56,-154.93 4067.21,-151.34 4075.77,-147.41"/>
<polygon fill="black" stroke="black" points="4077.48,-150.47 4085.01,-143.02 4074.48,-144.14 4077.48,-150.47"/>
</g>
<!-- TA&#45;CONSTRAINTS&#45;&gt;AOU&#45;22 -->
<g id="edge19" class="edge">
<title>TA&#45;CONSTRAINTS&#45;&gt;AOU&#45;22</title>
<path fill="none" stroke="black" d="M3115.07,-326.77C3390.79,-305.91 4083.33,-246.55 4321.12,-157.96"/>
<polygon fill="black" stroke="black" points="4322.66,-161.11 4330.74,-154.26 4320.15,-154.58 4322.66,-161.11"/>
</g>
<!-- TA&#45;CONSTRAINTS&#45;&gt;AOU&#45;23 -->
<g id="edge20" class="edge">
<title>TA&#45;CONSTRAINTS&#45;&gt;AOU&#45;23</title>
<path fill="none" stroke="black" d="M3115.09,-328.35C3425.81,-309.36 4276.02,-250.24 4540,-158 4561.88,-150.36 4583.92,-138.35 4603.28,-126.04"/>
<polygon fill="black" stroke="black" points="4605.22,-128.95 4611.69,-120.56 4601.4,-123.08 4605.22,-128.95"/>
</g>
<!-- TA&#45;CONSTRAINTS&#45;&gt;AOU&#45;24 -->
<g id="edge21" class="edge">
<title>TA&#45;CONSTRAINTS&#45;&gt;AOU&#45;24</title>
<path fill="none" stroke="black" d="M3115.12,-330.46C3459.54,-315.82 4477.39,-264.45 4790,-158 4812.04,-150.49 4834.21,-138.46 4853.64,-126.08"/>
<polygon fill="black" stroke="black" points="4855.61,-128.97 4862.07,-120.57 4851.78,-123.11 4855.61,-128.97"/>
</g>
<!-- TA&#45;CONSTRAINTS&#45;&gt;AOU&#45;25 -->
<g id="edge22" class="edge">
<title>TA&#45;CONSTRAINTS&#45;&gt;AOU&#45;25</title>
<path fill="none" stroke="black" d="M3115.25,-332.97C3491.84,-325.1 4682.35,-290.11 5040,-158 5055.64,-152.22 5071.06,-143.57 5085.16,-134.11"/>
<polygon fill="black" stroke="black" points="5087.54,-136.71 5093.76,-128.13 5083.55,-130.97 5087.54,-136.71"/>
</g>
<!-- TA&#45;CONSTRAINTS&#45;&gt;AOU&#45;26 -->
<g id="edge23" class="edge">
<title>TA&#45;CONSTRAINTS&#45;&gt;AOU&#45;26</title>
<path fill="none" stroke="black" d="M3115.32,-333.78C3517.63,-328.32 4856.36,-299.69 5258,-158 5274.45,-152.2 5290.75,-143.4 5305.66,-133.77"/>
<polygon fill="black" stroke="black" points="5307.9,-136.49 5314.27,-128.02 5304.01,-130.66 5307.9,-136.49"/>
</g>
<!-- TA&#45;CONSTRAINTS&#45;&gt;AOU&#45;27 -->
<g id="edge24" class="edge">
<title>TA&#45;CONSTRAINTS&#45;&gt;AOU&#45;27</title>
<path fill="none" stroke="black" d="M3115.06,-333.89C3542.27,-328.66 5035.9,-300.38 5487,-158 5510.17,-150.69 5533.53,-138.51 5553.94,-125.92"/>
<polygon fill="black" stroke="black" points="5555.91,-128.81 5562.49,-120.51 5552.17,-122.9 5555.91,-128.81"/>
</g>
<!-- TA&#45;CONSTRAINTS&#45;&gt;AOU&#45;28 -->
<g id="edge25" class="edge">
<title>TA&#45;CONSTRAINTS&#45;&gt;AOU&#45;28</title>
<path fill="none" stroke="black" d="M3115.03,-334.23C3569.68,-330.15 5241.27,-305.25 5747,-158 5756.93,-155.11 5766.93,-151.44 5776.78,-147.28"/>
<polygon fill="black" stroke="black" points="5778.43,-150.38 5786.17,-143.15 5775.61,-143.97 5778.43,-150.38"/>
</g>
<!-- TT&#45;EXPECTATIONS&#45;&gt;TA&#45;CONSTRAINTS -->
<g id="edge27" class="edge">
<title>TT&#45;EXPECTATIONS&#45;&gt;TA&#45;CONSTRAINTS</title>
<path fill="none" stroke="black" d="M3000,-513.73C3000,-474.19 3000,-418.73 3000,-380.54"/>
<polygon fill="black" stroke="black" points="3003.5,-380.25 3000,-370.25 2996.5,-380.25 3003.5,-380.25"/>
</g>
</g>
</svg>
