<?xml version="1.0" encoding="UTF-8" standalone="no"?>
<!DOCTYPE svg PUBLIC "-//W3C//DTD SVG 1.1//EN"
 "http://www.w3.org/Graphics/SVG/1.1/DTD/svg11.dtd">
<!-- Generated by graphviz version 2.43.0 (0)
 -->
<!-- Title: G Pages: 1 -->
<svg width="1764pt" height="847pt"
 viewBox="0.00 0.00 1764.00 847.00" xmlns="http://www.w3.org/2000/svg" xmlns:xlink="http://www.w3.org/1999/xlink">
<g id="graph0" class="graph" transform="scale(1 1) rotate(0) translate(4 843)">
<title>G</title>
<polygon fill="white" stroke="transparent" points="-4,4 -4,-843 1760,-843 1760,4 -4,4"/>
<!-- TRUSTABLE&#45;SOFTWARE -->
<g id="node1" class="node">
<title>TRUSTABLE&#45;SOFTWARE</title>
<g id="a_node1"><a xlink:href="https://Erikhu1.github.io/json_dev/main/_images/custom_TRUSTABLE-SOFTWARE_graph.svg" xlink:title="TRUSTABLE&#45;SOFTWARE: This\nrelease of JSON&#45;Library\nalso reffered in the\ndocumentation as nlohmann/json\nlibrary is Trustable.\n" target="_top">
<polygon fill="none" stroke="black" points="1024,-839 776,-839 776,-756 1024,-756 1024,-839"/>
<text text-anchor="middle" x="900" y="-823.8" font-family="Open Sans" font-size="14.00">TRUSTABLE&#45;SOFTWARE: This</text>
<text text-anchor="middle" x="900" y="-808.8" font-family="Open Sans" font-size="14.00">release of JSON&#45;Library</text>
<text text-anchor="middle" x="900" y="-793.8" font-family="Open Sans" font-size="14.00">also reffered in the</text>
<text text-anchor="middle" x="900" y="-778.8" font-family="Open Sans" font-size="14.00">documentation as nlohmann/json</text>
<text text-anchor="middle" x="900" y="-763.8" font-family="Open Sans" font-size="14.00">library is Trustable.</text>
</a>
</g>
</g>
<!-- TT&#45;CHANGES -->
<g id="node10" class="node">
<title>TT&#45;CHANGES</title>
<g id="a_node10"><a xlink:href="https://Erikhu1.github.io/json_dev/main/_images/custom_TT-CHANGES_graph.svg" xlink:title="TT&#45;CHANGES: nlohmann/json\nlibrary is actively maintained,\nwith regular updates\nto dependencies, and\nchanges are verified\nto prevent regressions.\n" target="_top">
<polygon fill="none" stroke="black" points="1011,-612 789,-612 789,-514 1011,-514 1011,-612"/>
<text text-anchor="middle" x="900" y="-596.8" font-family="Open Sans" font-size="14.00">TT&#45;CHANGES: nlohmann/json</text>
<text text-anchor="middle" x="900" y="-581.8" font-family="Open Sans" font-size="14.00">library is actively maintained,</text>
<text text-anchor="middle" x="900" y="-566.8" font-family="Open Sans" font-size="14.00">with regular updates</text>
<text text-anchor="middle" x="900" y="-551.8" font-family="Open Sans" font-size="14.00">to dependencies, and</text>
<text text-anchor="middle" x="900" y="-536.8" font-family="Open Sans" font-size="14.00">changes are verified</text>
<text text-anchor="middle" x="900" y="-521.8" font-family="Open Sans" font-size="14.00">to prevent regressions.</text>
</a>
</g>
</g>
<!-- TRUSTABLE&#45;SOFTWARE&#45;&gt;TT&#45;CHANGES -->
<g id="edge1" class="edge">
<title>TRUSTABLE&#45;SOFTWARE&#45;&gt;TT&#45;CHANGES</title>
<path fill="none" stroke="black" d="M900,-755.74C900,-718.88 900,-664.18 900,-622.63"/>
<polygon fill="black" stroke="black" points="903.5,-622.37 900,-612.37 896.5,-622.37 903.5,-622.37"/>
</g>
<!-- AOU&#45;01 -->
<g id="node2" class="node">
<title>AOU&#45;01</title>
<g id="a_node2"><a xlink:href="https://Erikhu1.github.io/json_dev/main/generated/AOU.html#aou-01" xlink:title="AOU&#45;01: The integrator\nshall report problems\nwith nlohmann/json&#39;s\nimplementation to the\nupstream nlohmann/json project\nwhenever a problem is\ndetected. " target="_top">
<polygon fill="none" stroke="black" points="242,-120.5 0,-120.5 0,-7.5 242,-7.5 242,-120.5"/>
<text text-anchor="middle" x="121" y="-105.3" font-family="Open Sans" font-size="14.00">AOU&#45;01: The integrator</text>
<text text-anchor="middle" x="121" y="-90.3" font-family="Open Sans" font-size="14.00">shall report problems</text>
<text text-anchor="middle" x="121" y="-75.3" font-family="Open Sans" font-size="14.00">with nlohmann/json&#39;s</text>
<text text-anchor="middle" x="121" y="-60.3" font-family="Open Sans" font-size="14.00">implementation to the</text>
<text text-anchor="middle" x="121" y="-45.3" font-family="Open Sans" font-size="14.00">upstream nlohmann/json project</text>
<text text-anchor="middle" x="121" y="-30.3" font-family="Open Sans" font-size="14.00">whenever a problem is</text>
<text text-anchor="middle" x="121" y="-15.3" font-family="Open Sans" font-size="14.00">detected. </text>
</a>
</g>
</g>
<!-- AOU&#45;10_COMBINED -->
<g id="node3" class="node">
<title>AOU&#45;10_COMBINED</title>
<g id="a_node3"><a xlink:href="https://Erikhu1.github.io/json_dev/main/generated/AOU.html#aou-10_combined" xlink:title="AOU&#45;10_COMBINED: The\nintegrator shall evaluate\nthe provided evidence\nand supplement it where\nnecessary, whenever the\ntrustability documentation\nof nlohmann/json is reviewed.\n" target="_top">
<polygon fill="none" stroke="black" points="484,-120.5 260,-120.5 260,-7.5 484,-7.5 484,-120.5"/>
<text text-anchor="middle" x="372" y="-105.3" font-family="Open Sans" font-size="14.00">AOU&#45;10_COMBINED: The</text>
<text text-anchor="middle" x="372" y="-90.3" font-family="Open Sans" font-size="14.00">integrator shall evaluate</text>
<text text-anchor="middle" x="372" y="-75.3" font-family="Open Sans" font-size="14.00">the provided evidence</text>
<text text-anchor="middle" x="372" y="-60.3" font-family="Open Sans" font-size="14.00">and supplement it where</text>
<text text-anchor="middle" x="372" y="-45.3" font-family="Open Sans" font-size="14.00">necessary, whenever the</text>
<text text-anchor="middle" x="372" y="-30.3" font-family="Open Sans" font-size="14.00">trustability documentation</text>
<text text-anchor="middle" x="372" y="-15.3" font-family="Open Sans" font-size="14.00">of nlohmann/json is reviewed.</text>
</a>
</g>
</g>
<!-- AOU&#45;28 -->
<g id="node4" class="node">
<title>AOU&#45;28</title>
<g id="a_node4"><a xlink:href="https://Erikhu1.github.io/json_dev/main/generated/AOU.html#aou-28" xlink:title="AOU&#45;28: The integrator\nshall ensure that the\nknown open bugs of nlohmann/json\nare regularly reviewed\non their impact on the\nuse of the documented\nversion as long as the\nlibrary is actively used.\n" target="_top">
<polygon fill="none" stroke="black" points="768,-128 502,-128 502,0 768,0 768,-128"/>
<text text-anchor="middle" x="635" y="-112.8" font-family="Open Sans" font-size="14.00">AOU&#45;28: The integrator</text>
<text text-anchor="middle" x="635" y="-97.8" font-family="Open Sans" font-size="14.00">shall ensure that the</text>
<text text-anchor="middle" x="635" y="-82.8" font-family="Open Sans" font-size="14.00">known open bugs of nlohmann/json</text>
<text text-anchor="middle" x="635" y="-67.8" font-family="Open Sans" font-size="14.00">are regularly reviewed</text>
<text text-anchor="middle" x="635" y="-52.8" font-family="Open Sans" font-size="14.00">on their impact on the</text>
<text text-anchor="middle" x="635" y="-37.8" font-family="Open Sans" font-size="14.00">use of the documented</text>
<text text-anchor="middle" x="635" y="-22.8" font-family="Open Sans" font-size="14.00">version as long as the</text>
<text text-anchor="middle" x="635" y="-7.8" font-family="Open Sans" font-size="14.00">library is actively used.</text>
</a>
</g>
</g>
<!-- JLS&#45;04 -->
<g id="node5" class="node">
<title>JLS&#45;04</title>
<g id="a_node5"><a xlink:href="https://Erikhu1.github.io/json_dev/main/generated/JLS.html#jls-04" xlink:title="JLS&#45;04: External dependencies\nare checked for potential\nsecurity vulnerabilities\nwith each pull request\nto main. Merging is blocked\nuntil all warnings are\nresolved. " target="_top">
<polygon fill="none" stroke="black" points="1014,-120.5 786,-120.5 786,-7.5 1014,-7.5 1014,-120.5"/>
<text text-anchor="middle" x="900" y="-105.3" font-family="Open Sans" font-size="14.00">JLS&#45;04: External dependencies</text>
<text text-anchor="middle" x="900" y="-90.3" font-family="Open Sans" font-size="14.00">are checked for potential</text>
<text text-anchor="middle" x="900" y="-75.3" font-family="Open Sans" font-size="14.00">security vulnerabilities</text>
<text text-anchor="middle" x="900" y="-60.3" font-family="Open Sans" font-size="14.00">with each pull request</text>
<text text-anchor="middle" x="900" y="-45.3" font-family="Open Sans" font-size="14.00">to main. Merging is blocked</text>
<text text-anchor="middle" x="900" y="-30.3" font-family="Open Sans" font-size="14.00">until all warnings are</text>
<text text-anchor="middle" x="900" y="-15.3" font-family="Open Sans" font-size="14.00">resolved. </text>
</a>
</g>
</g>
<!-- JLS&#45;05 -->
<g id="node6" class="node">
<title>JLS&#45;05</title>
<g id="a_node6"><a xlink:href="https://Erikhu1.github.io/json_dev/main/generated/JLS.html#jls-05" xlink:title="JLS&#45;05: The OSS nlohmann/json\nis widely used and actively\nmaintained; bugs and\nmisbehaviours are tracked\npublicly and transparently.\n" target="_top">
<polygon fill="none" stroke="black" points="1268,-105.5 1032,-105.5 1032,-22.5 1268,-22.5 1268,-105.5"/>
<text text-anchor="middle" x="1150" y="-90.3" font-family="Open Sans" font-size="14.00">JLS&#45;05: The OSS nlohmann/json</text>
<text text-anchor="middle" x="1150" y="-75.3" font-family="Open Sans" font-size="14.00">is widely used and actively</text>
<text text-anchor="middle" x="1150" y="-60.3" font-family="Open Sans" font-size="14.00">maintained; bugs and</text>
<text text-anchor="middle" x="1150" y="-45.3" font-family="Open Sans" font-size="14.00">misbehaviours are tracked</text>
<text text-anchor="middle" x="1150" y="-30.3" font-family="Open Sans" font-size="14.00">publicly and transparently.</text>
</a>
</g>
</g>
<!-- JLS&#45;11 -->
<g id="node7" class="node">
<title>JLS&#45;11</title>
<g id="a_node7"><a xlink:href="https://Erikhu1.github.io/json_dev/main/generated/JLS.html#jls-11" xlink:title="JLS&#45;11: A score based\non outstanding, fixed\nand mitigated faults\nis calculated based on\ngithub issues in nlohmann/json.\n" target="_top">
<polygon fill="none" stroke="black" points="1525.5,-105.5 1286.5,-105.5 1286.5,-22.5 1525.5,-22.5 1525.5,-105.5"/>
<text text-anchor="middle" x="1406" y="-90.3" font-family="Open Sans" font-size="14.00">JLS&#45;11: A score based</text>
<text text-anchor="middle" x="1406" y="-75.3" font-family="Open Sans" font-size="14.00">on outstanding, fixed</text>
<text text-anchor="middle" x="1406" y="-60.3" font-family="Open Sans" font-size="14.00">and mitigated faults</text>
<text text-anchor="middle" x="1406" y="-45.3" font-family="Open Sans" font-size="14.00">is calculated based on</text>
<text text-anchor="middle" x="1406" y="-30.3" font-family="Open Sans" font-size="14.00">github issues in nlohmann/json.</text>
</a>
</g>
</g>
<!-- JLS&#45;27 -->
<g id="node8" class="node">
<title>JLS&#45;27</title>
<g id="a_node8"><a xlink:href="https://Erikhu1.github.io/json_dev/main/generated/JLS.html#jls-27" xlink:title="JLS&#45;27: The nlohnmann/json\nlibrary uses no external\ncomponents besides the\nC++ standard components.\n" target="_top">
<polygon fill="none" stroke="black" points="1756,-98 1544,-98 1544,-30 1756,-30 1756,-98"/>
<text text-anchor="middle" x="1650" y="-82.8" font-family="Open Sans" font-size="14.00">JLS&#45;27: The nlohnmann/json</text>
<text text-anchor="middle" x="1650" y="-67.8" font-family="Open Sans" font-size="14.00">library uses no external</text>
<text text-anchor="middle" x="1650" y="-52.8" font-family="Open Sans" font-size="14.00">components besides the</text>
<text text-anchor="middle" x="1650" y="-37.8" font-family="Open Sans" font-size="14.00">C++ standard components.</text>
</a>
</g>
</g>
<!-- TA&#45;FIXES -->
<g id="node9" class="node">
<title>TA&#45;FIXES</title>
<g id="a_node9"><a xlink:href="https://Erikhu1.github.io/json_dev/main/_images/custom_TA-FIXES_graph.svg" xlink:title="TA&#45;FIXES: Known bugs\nor misbehaviours are\nanalysed and triaged,\nand critical fixes or\nmitigations are implemented\nor applied. " target="_top">
<polygon fill="none" stroke="black" points="1008,-370 792,-370 792,-272 1008,-272 1008,-370"/>
<text text-anchor="middle" x="900" y="-354.8" font-family="Open Sans" font-size="14.00">TA&#45;FIXES: Known bugs</text>
<text text-anchor="middle" x="900" y="-339.8" font-family="Open Sans" font-size="14.00">or misbehaviours are</text>
<text text-anchor="middle" x="900" y="-324.8" font-family="Open Sans" font-size="14.00">analysed and triaged,</text>
<text text-anchor="middle" x="900" y="-309.8" font-family="Open Sans" font-size="14.00">and critical fixes or</text>
<text text-anchor="middle" x="900" y="-294.8" font-family="Open Sans" font-size="14.00">mitigations are implemented</text>
<text text-anchor="middle" x="900" y="-279.8" font-family="Open Sans" font-size="14.00">or applied. </text>
</a>
</g>
</g>
<!-- TA&#45;FIXES&#45;&gt;AOU&#45;01 -->
<g id="edge3" class="edge">
<title>TA&#45;FIXES&#45;&gt;AOU&#45;01</title>
<path fill="none" stroke="black" d="M791.97,-293.83C661.69,-260.95 437,-200.02 251,-128 248.11,-126.88 245.2,-125.72 242.27,-124.53"/>
<polygon fill="black" stroke="black" points="243.46,-121.24 232.88,-120.63 240.77,-127.7 243.46,-121.24"/>
</g>
<!-- TA&#45;FIXES&#45;&gt;AOU&#45;10_COMBINED -->
<g id="edge6" class="edge">
<title>TA&#45;FIXES&#45;&gt;AOU&#45;10_COMBINED</title>
<path fill="none" stroke="black" d="M795.32,-271.99C712.79,-233.81 595.01,-178.6 493,-128 491.17,-127.09 489.33,-126.17 487.47,-125.25"/>
<polygon fill="black" stroke="black" points="488.62,-121.91 478.12,-120.55 485.48,-128.17 488.62,-121.91"/>
</g>
<!-- TA&#45;FIXES&#45;&gt;AOU&#45;28 -->
<g id="edge7" class="edge">
<title>TA&#45;FIXES&#45;&gt;AOU&#45;28</title>
<path fill="none" stroke="black" d="M849.84,-271.74C809.76,-233.17 753.02,-178.57 707.92,-135.16"/>
<polygon fill="black" stroke="black" points="710.13,-132.44 700.5,-128.02 705.28,-137.48 710.13,-132.44"/>
</g>
<!-- TA&#45;FIXES&#45;&gt;JLS&#45;04 -->
<g id="edge4" class="edge">
<title>TA&#45;FIXES&#45;&gt;JLS&#45;04</title>
<path fill="none" stroke="black" d="M900,-271.74C900,-231.82 900,-174.73 900,-130.66"/>
<polygon fill="black" stroke="black" points="903.5,-130.61 900,-120.61 896.5,-130.61 903.5,-130.61"/>
</g>
<!-- TA&#45;FIXES&#45;&gt;JLS&#45;05 -->
<g id="edge2" class="edge">
<title>TA&#45;FIXES&#45;&gt;JLS&#45;05</title>
<path fill="none" stroke="black" d="M947.32,-271.74C991.97,-226.19 1058.53,-158.29 1103.06,-112.88"/>
<polygon fill="black" stroke="black" points="1105.79,-115.1 1110.29,-105.51 1100.79,-110.2 1105.79,-115.1"/>
</g>
<!-- TA&#45;FIXES&#45;&gt;JLS&#45;11 -->
<g id="edge5" class="edge">
<title>TA&#45;FIXES&#45;&gt;JLS&#45;11</title>
<path fill="none" stroke="black" d="M995.47,-271.89C1087.68,-225.42 1226.24,-155.59 1316.41,-110.15"/>
<polygon fill="black" stroke="black" points="1318.17,-113.18 1325.52,-105.56 1315.02,-106.93 1318.17,-113.18"/>
</g>
<!-- TA&#45;FIXES&#45;&gt;JLS&#45;27 -->
<g id="edge8" class="edge">
<title>TA&#45;FIXES&#45;&gt;JLS&#45;27</title>
<path fill="none" stroke="black" d="M1008.27,-294.58C1136.6,-262.79 1355.66,-203.27 1535,-128 1552,-120.86 1569.76,-111.94 1586.09,-103.07"/>
<polygon fill="black" stroke="black" points="1587.93,-106.05 1595,-98.15 1584.55,-99.92 1587.93,-106.05"/>
</g>
<!-- TT&#45;CHANGES&#45;&gt;TA&#45;FIXES -->
<g id="edge9" class="edge">
<title>TT&#45;CHANGES&#45;&gt;TA&#45;FIXES</title>
<path fill="none" stroke="black" d="M900,-513.72C900,-475.23 900,-421.2 900,-380.3"/>
<polygon fill="black" stroke="black" points="903.5,-380.2 900,-370.2 896.5,-380.2 903.5,-380.2"/>
</g>
</g>
</svg>
