<?xml version="1.0" encoding="UTF-8" standalone="no"?>
<!DOCTYPE svg PUBLIC "-//W3C//DTD SVG 1.1//EN"
 "http://www.w3.org/Graphics/SVG/1.1/DTD/svg11.dtd">
<!-- Generated by graphviz version 2.43.0 (0)
 -->
<!-- Title: G Pages: 1 -->
<svg width="256pt" height="772pt"
 viewBox="0.00 0.00 256.00 772.00" xmlns="http://www.w3.org/2000/svg" xmlns:xlink="http://www.w3.org/1999/xlink">
<g id="graph0" class="graph" transform="scale(1 1) rotate(0) translate(4 768)">
<title>G</title>
<polygon fill="white" stroke="transparent" points="-4,4 -4,-768 252,-768 252,4 -4,4"/>
<!-- TRUSTABLE&#45;SOFTWARE -->
<g id="node1" class="node">
<title>TRUSTABLE&#45;SOFTWARE</title>
<g id="a_node1"><a xlink:href="https://Erikhu1.github.io/json_dev/main/_images/custom_TRUSTABLE-SOFTWARE_graph.svg" xlink:title="TRUSTABLE&#45;SOFTWARE: This\nrelease of JSON&#45;Library\nalso reffered in the\ndocumentation as nlohmann/json\nlibrary is Trustable.\n" target="_top">
<polygon fill="none" stroke="black" points="248,-764 0,-764 0,-681 248,-681 248,-764"/>
<text text-anchor="middle" x="124" y="-748.8" font-family="Open Sans" font-size="14.00">TRUSTABLE&#45;SOFTWARE: This</text>
<text text-anchor="middle" x="124" y="-733.8" font-family="Open Sans" font-size="14.00">release of JSON&#45;Library</text>
<text text-anchor="middle" x="124" y="-718.8" font-family="Open Sans" font-size="14.00">also reffered in the</text>
<text text-anchor="middle" x="124" y="-703.8" font-family="Open Sans" font-size="14.00">documentation as nlohmann/json</text>
<text text-anchor="middle" x="124" y="-688.8" font-family="Open Sans" font-size="14.00">library is Trustable.</text>
</a>
</g>
</g>
<!-- TT&#45;RESULTS -->
<g id="node4" class="node">
<title>TT&#45;RESULTS</title>
<g id="a_node4"><a xlink:href="https://Erikhu1.github.io/json_dev/main/_images/custom_TT-RESULTS_graph.svg" xlink:title="TT&#45;RESULTS: Evidence\nis provided within score&#45;json\nto demonstrate that the\nnlohmann/json library\ndoes what it is supposed\nto do, and does not do\nwhat it must not do.\n" target="_top">
<polygon fill="none" stroke="black" points="231.5,-537 16.5,-537 16.5,-424 231.5,-424 231.5,-537"/>
<text text-anchor="middle" x="124" y="-521.8" font-family="Open Sans" font-size="14.00">TT&#45;RESULTS: Evidence</text>
<text text-anchor="middle" x="124" y="-506.8" font-family="Open Sans" font-size="14.00">is provided within score&#45;json</text>
<text text-anchor="middle" x="124" y="-491.8" font-family="Open Sans" font-size="14.00">to demonstrate that the</text>
<text text-anchor="middle" x="124" y="-476.8" font-family="Open Sans" font-size="14.00">nlohmann/json library</text>
<text text-anchor="middle" x="124" y="-461.8" font-family="Open Sans" font-size="14.00">does what it is supposed</text>
<text text-anchor="middle" x="124" y="-446.8" font-family="Open Sans" font-size="14.00">to do, and does not do</text>
<text text-anchor="middle" x="124" y="-431.8" font-family="Open Sans" font-size="14.00">what it must not do.</text>
</a>
</g>
</g>
<!-- TRUSTABLE&#45;SOFTWARE&#45;&gt;TT&#45;RESULTS -->
<g id="edge1" class="edge">
<title>TRUSTABLE&#45;SOFTWARE&#45;&gt;TT&#45;RESULTS</title>
<path fill="none" stroke="black" d="M124,-680.79C124,-644.26 124,-590 124,-547.32"/>
<polygon fill="black" stroke="black" points="127.5,-547.29 124,-537.29 120.5,-547.29 127.5,-547.29"/>
</g>
<!-- JLS&#45;18 -->
<g id="node2" class="node">
<title>JLS&#45;18</title>
<g id="a_node2"><a xlink:href="https://Erikhu1.github.io/json_dev/main/generated/JLS.html#jls-18" xlink:title="JLS&#45;18: Results from\ntests are accurately\ncaptured. " target="_top">
<polygon fill="none" stroke="black" points="202.5,-53 45.5,-53 45.5,0 202.5,0 202.5,-53"/>
<text text-anchor="middle" x="124" y="-37.8" font-family="Open Sans" font-size="14.00">JLS&#45;18: Results from</text>
<text text-anchor="middle" x="124" y="-22.8" font-family="Open Sans" font-size="14.00">tests are accurately</text>
<text text-anchor="middle" x="124" y="-7.8" font-family="Open Sans" font-size="14.00">captured. </text>
</a>
</g>
</g>
<!-- TA&#45;DATA -->
<g id="node3" class="node">
<title>TA&#45;DATA</title>
<g id="a_node3"><a xlink:href="https://Erikhu1.github.io/json_dev/main/_images/custom_TA-DATA_graph.svg" xlink:title="TA&#45;DATA: Data in score&#45;json\nis collected from tests,\nand from monitoring of\ndeployed software, according\nto specified objectives.\n" target="_top">
<polygon fill="none" stroke="black" points="234,-280 14,-280 14,-197 234,-197 234,-280"/>
<text text-anchor="middle" x="124" y="-264.8" font-family="Open Sans" font-size="14.00">TA&#45;DATA: Data in score&#45;json</text>
<text text-anchor="middle" x="124" y="-249.8" font-family="Open Sans" font-size="14.00">is collected from tests,</text>
<text text-anchor="middle" x="124" y="-234.8" font-family="Open Sans" font-size="14.00">and from monitoring of</text>
<text text-anchor="middle" x="124" y="-219.8" font-family="Open Sans" font-size="14.00">deployed software, according</text>
<text text-anchor="middle" x="124" y="-204.8" font-family="Open Sans" font-size="14.00">to specified objectives.</text>
</a>
</g>
</g>
<!-- TA&#45;DATA&#45;&gt;JLS&#45;18 -->
<g id="edge2" class="edge">
<title>TA&#45;DATA&#45;&gt;JLS&#45;18</title>
<path fill="none" stroke="black" d="M124,-196.76C124,-158.11 124,-100.59 124,-63.57"/>
<polygon fill="black" stroke="black" points="127.5,-63.24 124,-53.24 120.5,-63.24 127.5,-63.24"/>
</g>
<!-- TT&#45;RESULTS&#45;&gt;TA&#45;DATA -->
<g id="edge3" class="edge">
<title>TT&#45;RESULTS&#45;&gt;TA&#45;DATA</title>
<path fill="none" stroke="black" d="M124,-423.84C124,-383.54 124,-329.5 124,-290.36"/>
<polygon fill="black" stroke="black" points="127.5,-290.25 124,-280.25 120.5,-290.25 127.5,-290.25"/>
</g>
</g>
</svg>
