<?xml version="1.0" encoding="UTF-8" standalone="no"?>
<!DOCTYPE svg PUBLIC "-//W3C//DTD SVG 1.1//EN"
 "http://www.w3.org/Graphics/SVG/1.1/DTD/svg11.dtd">
<!-- Generated by graphviz version 2.43.0 (0)
 -->
<!-- Title: G Pages: 1 -->
<svg width="417pt" height="817pt"
 viewBox="0.00 0.00 416.50 817.00" xmlns="http://www.w3.org/2000/svg" xmlns:xlink="http://www.w3.org/1999/xlink">
<g id="graph0" class="graph" transform="scale(1 1) rotate(0) translate(4 813)">
<title>G</title>
<polygon fill="white" stroke="transparent" points="-4,4 -4,-813 412.5,-813 412.5,4 -4,4"/>
<!-- TRUSTABLE&#45;SOFTWARE -->
<g id="node1" class="node">
<title>TRUSTABLE&#45;SOFTWARE</title>
<g id="a_node1"><a xlink:href="https://Erikhu1.github.io/json_dev/main/_images/custom_TRUSTABLE-SOFTWARE_graph.svg" xlink:title="TRUSTABLE&#45;SOFTWARE: This\nrelease of JSON&#45;Library\nalso reffered in the\ndocumentation as nlohmann/json\nlibrary is Trustable.\n" target="_top">
<polygon fill="none" stroke="black" points="328,-809 80,-809 80,-726 328,-726 328,-809"/>
<text text-anchor="middle" x="204" y="-793.8" font-family="Open Sans" font-size="14.00">TRUSTABLE&#45;SOFTWARE: This</text>
<text text-anchor="middle" x="204" y="-778.8" font-family="Open Sans" font-size="14.00">release of JSON&#45;Library</text>
<text text-anchor="middle" x="204" y="-763.8" font-family="Open Sans" font-size="14.00">also reffered in the</text>
<text text-anchor="middle" x="204" y="-748.8" font-family="Open Sans" font-size="14.00">documentation as nlohmann/json</text>
<text text-anchor="middle" x="204" y="-733.8" font-family="Open Sans" font-size="14.00">library is Trustable.</text>
</a>
</g>
</g>
<!-- TT&#45;RESULTS -->
<g id="node5" class="node">
<title>TT&#45;RESULTS</title>
<g id="a_node5"><a xlink:href="https://Erikhu1.github.io/json_dev/main/_images/custom_TT-RESULTS_graph.svg" xlink:title="TT&#45;RESULTS: Evidence\nis provided within score&#45;json\nto demonstrate that the\nnlohmann/json library\ndoes what it is supposed\nto do, and does not do\nwhat it must not do.\n" target="_top">
<polygon fill="none" stroke="black" points="311.5,-582 96.5,-582 96.5,-469 311.5,-469 311.5,-582"/>
<text text-anchor="middle" x="204" y="-566.8" font-family="Open Sans" font-size="14.00">TT&#45;RESULTS: Evidence</text>
<text text-anchor="middle" x="204" y="-551.8" font-family="Open Sans" font-size="14.00">is provided within score&#45;json</text>
<text text-anchor="middle" x="204" y="-536.8" font-family="Open Sans" font-size="14.00">to demonstrate that the</text>
<text text-anchor="middle" x="204" y="-521.8" font-family="Open Sans" font-size="14.00">nlohmann/json library</text>
<text text-anchor="middle" x="204" y="-506.8" font-family="Open Sans" font-size="14.00">does what it is supposed</text>
<text text-anchor="middle" x="204" y="-491.8" font-family="Open Sans" font-size="14.00">to do, and does not do</text>
<text text-anchor="middle" x="204" y="-476.8" font-family="Open Sans" font-size="14.00">what it must not do.</text>
</a>
</g>
</g>
<!-- TRUSTABLE&#45;SOFTWARE&#45;&gt;TT&#45;RESULTS -->
<g id="edge1" class="edge">
<title>TRUSTABLE&#45;SOFTWARE&#45;&gt;TT&#45;RESULTS</title>
<path fill="none" stroke="black" d="M204,-725.79C204,-689.26 204,-635 204,-592.32"/>
<polygon fill="black" stroke="black" points="207.5,-592.29 204,-582.29 200.5,-592.29 207.5,-592.29"/>
</g>
<!-- JLS&#45;17 -->
<g id="node2" class="node">
<title>JLS&#45;17</title>
<g id="a_node2"><a xlink:href="https://Erikhu1.github.io/json_dev/main/generated/JLS.html#jls-17" xlink:title="JLS&#45;17: A github workflow\ncalculates the fraction\nof expectations covered\nby tests in score&#45;json\n(TODO). " target="_top">
<polygon fill="none" stroke="black" points="196,-83 0,-83 0,0 196,0 196,-83"/>
<text text-anchor="middle" x="98" y="-67.8" font-family="Open Sans" font-size="14.00">JLS&#45;17: A github workflow</text>
<text text-anchor="middle" x="98" y="-52.8" font-family="Open Sans" font-size="14.00">calculates the fraction</text>
<text text-anchor="middle" x="98" y="-37.8" font-family="Open Sans" font-size="14.00">of expectations covered</text>
<text text-anchor="middle" x="98" y="-22.8" font-family="Open Sans" font-size="14.00">by tests in score&#45;json</text>
<text text-anchor="middle" x="98" y="-7.8" font-family="Open Sans" font-size="14.00">(TODO). </text>
</a>
</g>
</g>
<!-- JLS&#45;26 -->
<g id="node3" class="node">
<title>JLS&#45;26</title>
<g id="a_node3"><a xlink:href="https://Erikhu1.github.io/json_dev/main/generated/JLS.html#jls-26" xlink:title="JLS&#45;26: Pipeline execution\nresults are analyzed\nin nlohmann/json. " target="_top">
<polygon fill="none" stroke="black" points="408.5,-68 213.5,-68 213.5,-15 408.5,-15 408.5,-68"/>
<text text-anchor="middle" x="311" y="-52.8" font-family="Open Sans" font-size="14.00">JLS&#45;26: Pipeline execution</text>
<text text-anchor="middle" x="311" y="-37.8" font-family="Open Sans" font-size="14.00">results are analyzed</text>
<text text-anchor="middle" x="311" y="-22.8" font-family="Open Sans" font-size="14.00">in nlohmann/json. </text>
</a>
</g>
</g>
<!-- TA&#45;ANALYSIS -->
<g id="node4" class="node">
<title>TA&#45;ANALYSIS</title>
<g id="a_node4"><a xlink:href="https://Erikhu1.github.io/json_dev/main/_images/custom_TA-ANALYSIS_graph.svg" xlink:title="TA&#45;ANALYSIS: Collected\ndata from tests and monitoring\nof deployed software\nin score&#45;json is analysed\naccording to specified\nobjectives. " target="_top">
<polygon fill="none" stroke="black" points="320.5,-325 87.5,-325 87.5,-227 320.5,-227 320.5,-325"/>
<text text-anchor="middle" x="204" y="-309.8" font-family="Open Sans" font-size="14.00">TA&#45;ANALYSIS: Collected</text>
<text text-anchor="middle" x="204" y="-294.8" font-family="Open Sans" font-size="14.00">data from tests and monitoring</text>
<text text-anchor="middle" x="204" y="-279.8" font-family="Open Sans" font-size="14.00">of deployed software</text>
<text text-anchor="middle" x="204" y="-264.8" font-family="Open Sans" font-size="14.00">in score&#45;json is analysed</text>
<text text-anchor="middle" x="204" y="-249.8" font-family="Open Sans" font-size="14.00">according to specified</text>
<text text-anchor="middle" x="204" y="-234.8" font-family="Open Sans" font-size="14.00">objectives. </text>
</a>
</g>
</g>
<!-- TA&#45;ANALYSIS&#45;&gt;JLS&#45;17 -->
<g id="edge2" class="edge">
<title>TA&#45;ANALYSIS&#45;&gt;JLS&#45;17</title>
<path fill="none" stroke="black" d="M182.04,-226.83C164.13,-187.55 138.92,-132.25 120.79,-92.49"/>
<polygon fill="black" stroke="black" points="123.91,-90.89 116.57,-83.24 117.54,-93.79 123.91,-90.89"/>
</g>
<!-- TA&#45;ANALYSIS&#45;&gt;JLS&#45;26 -->
<g id="edge3" class="edge">
<title>TA&#45;ANALYSIS&#45;&gt;JLS&#45;26</title>
<path fill="none" stroke="black" d="M226.17,-226.83C246.64,-182.34 276.56,-117.33 294.85,-77.58"/>
<polygon fill="black" stroke="black" points="298.13,-78.84 299.13,-68.29 291.77,-75.92 298.13,-78.84"/>
</g>
<!-- TT&#45;RESULTS&#45;&gt;TA&#45;ANALYSIS -->
<g id="edge4" class="edge">
<title>TT&#45;RESULTS&#45;&gt;TA&#45;ANALYSIS</title>
<path fill="none" stroke="black" d="M204,-468.96C204,-429.23 204,-375.87 204,-335.49"/>
<polygon fill="black" stroke="black" points="207.5,-335.26 204,-325.26 200.5,-335.26 207.5,-335.26"/>
</g>
</g>
</svg>
