<?xml version="1.0" encoding="UTF-8" standalone="no"?>
<!DOCTYPE svg PUBLIC "-//W3C//DTD SVG 1.1//EN"
 "http://www.w3.org/Graphics/SVG/1.1/DTD/svg11.dtd">
<!-- Generated by graphviz version 2.43.0 (0)
 -->
<!-- Title: G Pages: 1 -->
<svg width="1363pt" height="817pt"
 viewBox="0.00 0.00 1362.50 817.00" xmlns="http://www.w3.org/2000/svg" xmlns:xlink="http://www.w3.org/1999/xlink">
<g id="graph0" class="graph" transform="scale(1 1) rotate(0) translate(4 813)">
<title>G</title>
<polygon fill="white" stroke="transparent" points="-4,4 -4,-813 1358.5,-813 1358.5,4 -4,4"/>
<!-- TRUSTABLE&#45;SOFTWARE -->
<g id="node1" class="node">
<title>TRUSTABLE&#45;SOFTWARE</title>
<g id="a_node1"><a xlink:href="https://Erikhu1.github.io/json_dev/main/_images/custom_TRUSTABLE-SOFTWARE_graph.svg" xlink:title="TRUSTABLE&#45;SOFTWARE: This\nrelease of JSON&#45;Library\nalso reffered in the\ndocumentation as nlohmann/json\nlibrary is Trustable.\n" target="_top">
<polygon fill="none" stroke="black" points="795.5,-809 547.5,-809 547.5,-726 795.5,-726 795.5,-809"/>
<text text-anchor="middle" x="671.5" y="-793.8" font-family="Open Sans" font-size="14.00">TRUSTABLE&#45;SOFTWARE: This</text>
<text text-anchor="middle" x="671.5" y="-778.8" font-family="Open Sans" font-size="14.00">release of JSON&#45;Library</text>
<text text-anchor="middle" x="671.5" y="-763.8" font-family="Open Sans" font-size="14.00">also reffered in the</text>
<text text-anchor="middle" x="671.5" y="-748.8" font-family="Open Sans" font-size="14.00">documentation as nlohmann/json</text>
<text text-anchor="middle" x="671.5" y="-733.8" font-family="Open Sans" font-size="14.00">library is Trustable.</text>
</a>
</g>
</g>
<!-- TT&#45;CHANGES -->
<g id="node9" class="node">
<title>TT&#45;CHANGES</title>
<g id="a_node9"><a xlink:href="https://Erikhu1.github.io/json_dev/main/_images/custom_TT-CHANGES_graph.svg" xlink:title="TT&#45;CHANGES: The nlohmann/json\nlibrary is actively maintained,\nwith regular updates\nto dependencies, and\nchanges are verified\nto prevent regressions.\n" target="_top">
<polygon fill="none" stroke="black" points="795.5,-582 547.5,-582 547.5,-484 795.5,-484 795.5,-582"/>
<text text-anchor="middle" x="671.5" y="-566.8" font-family="Open Sans" font-size="14.00">TT&#45;CHANGES: The nlohmann/json</text>
<text text-anchor="middle" x="671.5" y="-551.8" font-family="Open Sans" font-size="14.00">library is actively maintained,</text>
<text text-anchor="middle" x="671.5" y="-536.8" font-family="Open Sans" font-size="14.00">with regular updates</text>
<text text-anchor="middle" x="671.5" y="-521.8" font-family="Open Sans" font-size="14.00">to dependencies, and</text>
<text text-anchor="middle" x="671.5" y="-506.8" font-family="Open Sans" font-size="14.00">changes are verified</text>
<text text-anchor="middle" x="671.5" y="-491.8" font-family="Open Sans" font-size="14.00">to prevent regressions.</text>
</a>
</g>
</g>
<!-- TRUSTABLE&#45;SOFTWARE&#45;&gt;TT&#45;CHANGES -->
<g id="edge1" class="edge">
<title>TRUSTABLE&#45;SOFTWARE&#45;&gt;TT&#45;CHANGES</title>
<path fill="none" stroke="black" d="M671.5,-725.74C671.5,-688.88 671.5,-634.18 671.5,-592.63"/>
<polygon fill="black" stroke="black" points="675,-592.37 671.5,-582.37 668,-592.37 675,-592.37"/>
</g>
<!-- JLS&#45;06 -->
<g id="node2" class="node">
<title>JLS&#45;06</title>
<g id="a_node2"><a xlink:href="https://Erikhu1.github.io/json_dev/main/generated/JLS.html#jls-06" xlink:title="JLS&#45;06: Pull requests\nin the nlohmann/json\nrepository are merged\nonly after code review.\n" target="_top">
<polygon fill="none" stroke="black" points="173,-83 0,-83 0,-15 173,-15 173,-83"/>
<text text-anchor="middle" x="86.5" y="-67.8" font-family="Open Sans" font-size="14.00">JLS&#45;06: Pull requests</text>
<text text-anchor="middle" x="86.5" y="-52.8" font-family="Open Sans" font-size="14.00">in the nlohmann/json</text>
<text text-anchor="middle" x="86.5" y="-37.8" font-family="Open Sans" font-size="14.00">repository are merged</text>
<text text-anchor="middle" x="86.5" y="-22.8" font-family="Open Sans" font-size="14.00">only after code review.</text>
</a>
</g>
</g>
<!-- JLS&#45;07 -->
<g id="node3" class="node">
<title>JLS&#45;07</title>
<g id="a_node3"><a xlink:href="https://Erikhu1.github.io/json_dev/main/generated/JLS.html#jls-07" xlink:title="JLS&#45;07: The main branch\nof nlohmann/json is protected,\ni.e. no direct commits\nare possible. " target="_top">
<polygon fill="none" stroke="black" points="419.5,-83 191.5,-83 191.5,-15 419.5,-15 419.5,-83"/>
<text text-anchor="middle" x="305.5" y="-67.8" font-family="Open Sans" font-size="14.00">JLS&#45;07: The main branch</text>
<text text-anchor="middle" x="305.5" y="-52.8" font-family="Open Sans" font-size="14.00">of nlohmann/json is protected,</text>
<text text-anchor="middle" x="305.5" y="-37.8" font-family="Open Sans" font-size="14.00">i.e. no direct commits</text>
<text text-anchor="middle" x="305.5" y="-22.8" font-family="Open Sans" font-size="14.00">are possible. </text>
</a>
</g>
</g>
<!-- JLS&#45;12 -->
<g id="node4" class="node">
<title>JLS&#45;12</title>
<g id="a_node4"><a xlink:href="https://Erikhu1.github.io/json_dev/main/generated/JLS.html#jls-12" xlink:title="JLS&#45;12: A change management\nprocess is followed by\nnlohmann/json. " target="_top">
<polygon fill="none" stroke="black" points="669.5,-75.5 437.5,-75.5 437.5,-22.5 669.5,-22.5 669.5,-75.5"/>
<text text-anchor="middle" x="553.5" y="-60.3" font-family="Open Sans" font-size="14.00">JLS&#45;12: A change management</text>
<text text-anchor="middle" x="553.5" y="-45.3" font-family="Open Sans" font-size="14.00">process is followed by</text>
<text text-anchor="middle" x="553.5" y="-30.3" font-family="Open Sans" font-size="14.00">nlohmann/json. </text>
</a>
</g>
</g>
<!-- JLS&#45;31 -->
<g id="node5" class="node">
<title>JLS&#45;31</title>
<g id="a_node5"><a xlink:href="https://Erikhu1.github.io/json_dev/main/generated/JLS.html#jls-31" xlink:title="JLS&#45;31: The nlohmann/json\nlibrary has no components\nbesides the C++ standard\ncomponents. " target="_top">
<polygon fill="none" stroke="black" points="891,-83 688,-83 688,-15 891,-15 891,-83"/>
<text text-anchor="middle" x="789.5" y="-67.8" font-family="Open Sans" font-size="14.00">JLS&#45;31: The nlohmann/json</text>
<text text-anchor="middle" x="789.5" y="-52.8" font-family="Open Sans" font-size="14.00">library has no components</text>
<text text-anchor="middle" x="789.5" y="-37.8" font-family="Open Sans" font-size="14.00">besides the C++ standard</text>
<text text-anchor="middle" x="789.5" y="-22.8" font-family="Open Sans" font-size="14.00">components. </text>
</a>
</g>
</g>
<!-- JLS&#45;32 -->
<g id="node6" class="node">
<title>JLS&#45;32</title>
<g id="a_node6"><a xlink:href="https://Erikhu1.github.io/json_dev/main/generated/JLS.html#jls-32" xlink:title="JLS&#45;32: All pull requests\nto the develop branch\nin the nlohmann/json\nrepository trigger a\nrequest for review from\nNiels Lohmann (@nlohmann).\n" target="_top">
<polygon fill="none" stroke="black" points="1132,-98 909,-98 909,0 1132,0 1132,-98"/>
<text text-anchor="middle" x="1020.5" y="-82.8" font-family="Open Sans" font-size="14.00">JLS&#45;32: All pull requests</text>
<text text-anchor="middle" x="1020.5" y="-67.8" font-family="Open Sans" font-size="14.00">to the develop branch</text>
<text text-anchor="middle" x="1020.5" y="-52.8" font-family="Open Sans" font-size="14.00">in the nlohmann/json</text>
<text text-anchor="middle" x="1020.5" y="-37.8" font-family="Open Sans" font-size="14.00">repository trigger a</text>
<text text-anchor="middle" x="1020.5" y="-22.8" font-family="Open Sans" font-size="14.00">request for review from</text>
<text text-anchor="middle" x="1020.5" y="-7.8" font-family="Open Sans" font-size="14.00">Niels Lohmann (@nlohmann).</text>
</a>
</g>
</g>
<!-- JLS&#45;35 -->
<g id="node7" class="node">
<title>JLS&#45;35</title>
<g id="a_node7"><a xlink:href="https://Erikhu1.github.io/json_dev/main/generated/JLS.html#jls-35" xlink:title="JLS&#45;35: Pull requests\nin the nlohmann/json\nrepository are merged\nonly after running CI&#45;tests.\n" target="_top">
<polygon fill="none" stroke="black" points="1354.5,-83 1150.5,-83 1150.5,-15 1354.5,-15 1354.5,-83"/>
<text text-anchor="middle" x="1252.5" y="-67.8" font-family="Open Sans" font-size="14.00">JLS&#45;35: Pull requests</text>
<text text-anchor="middle" x="1252.5" y="-52.8" font-family="Open Sans" font-size="14.00">in the nlohmann/json</text>
<text text-anchor="middle" x="1252.5" y="-37.8" font-family="Open Sans" font-size="14.00">repository are merged</text>
<text text-anchor="middle" x="1252.5" y="-22.8" font-family="Open Sans" font-size="14.00">only after running CI&#45;tests.</text>
</a>
</g>
</g>
<!-- TA&#45;UPDATES -->
<g id="node8" class="node">
<title>TA&#45;UPDATES</title>
<g id="a_node8"><a xlink:href="https://Erikhu1.github.io/json_dev/main/_images/custom_TA-UPDATES_graph.svg" xlink:title="TA&#45;UPDATES: nlohmann/json\nlibrary components, configurations\nand tools are updated\nunder specified change\nand configuration management\ncontrols. " target="_top">
<polygon fill="none" stroke="black" points="801.5,-340 541.5,-340 541.5,-242 801.5,-242 801.5,-340"/>
<text text-anchor="middle" x="671.5" y="-324.8" font-family="Open Sans" font-size="14.00">TA&#45;UPDATES: nlohmann/json</text>
<text text-anchor="middle" x="671.5" y="-309.8" font-family="Open Sans" font-size="14.00">library components, configurations</text>
<text text-anchor="middle" x="671.5" y="-294.8" font-family="Open Sans" font-size="14.00">and tools are updated</text>
<text text-anchor="middle" x="671.5" y="-279.8" font-family="Open Sans" font-size="14.00">under specified change</text>
<text text-anchor="middle" x="671.5" y="-264.8" font-family="Open Sans" font-size="14.00">and configuration management</text>
<text text-anchor="middle" x="671.5" y="-249.8" font-family="Open Sans" font-size="14.00">controls. </text>
</a>
</g>
</g>
<!-- TA&#45;UPDATES&#45;&gt;JLS&#45;06 -->
<g id="edge2" class="edge">
<title>TA&#45;UPDATES&#45;&gt;JLS&#45;06</title>
<path fill="none" stroke="black" d="M541.5,-242.58C442.21,-205.49 302.48,-151.42 182.5,-98 175.12,-94.71 167.48,-91.16 159.89,-87.53"/>
<polygon fill="black" stroke="black" points="161.2,-84.28 150.67,-83.08 158.15,-90.58 161.2,-84.28"/>
</g>
<!-- TA&#45;UPDATES&#45;&gt;JLS&#45;07 -->
<g id="edge3" class="edge">
<title>TA&#45;UPDATES&#45;&gt;JLS&#45;07</title>
<path fill="none" stroke="black" d="M597.87,-241.72C529.29,-196.75 428.34,-130.55 364.79,-88.88"/>
<polygon fill="black" stroke="black" points="366.37,-85.73 356.08,-83.17 362.53,-91.58 366.37,-85.73"/>
</g>
<!-- TA&#45;UPDATES&#45;&gt;JLS&#45;12 -->
<g id="edge4" class="edge">
<title>TA&#45;UPDATES&#45;&gt;JLS&#45;12</title>
<path fill="none" stroke="black" d="M647.76,-241.72C624.91,-195.24 590.91,-126.09 570.6,-84.78"/>
<polygon fill="black" stroke="black" points="573.67,-83.09 566.11,-75.66 567.39,-86.17 573.67,-83.09"/>
</g>
<!-- TA&#45;UPDATES&#45;&gt;JLS&#45;31 -->
<g id="edge6" class="edge">
<title>TA&#45;UPDATES&#45;&gt;JLS&#45;31</title>
<path fill="none" stroke="black" d="M695.24,-241.72C716.76,-197.94 748.17,-134.05 768.72,-92.26"/>
<polygon fill="black" stroke="black" points="771.92,-93.69 773.19,-83.17 765.64,-90.6 771.92,-93.69"/>
</g>
<!-- TA&#45;UPDATES&#45;&gt;JLS&#45;32 -->
<g id="edge5" class="edge">
<title>TA&#45;UPDATES&#45;&gt;JLS&#45;32</title>
<path fill="none" stroke="black" d="M741.71,-241.72C799.69,-201.85 881.94,-145.29 942.07,-103.93"/>
<polygon fill="black" stroke="black" points="944.15,-106.75 950.41,-98.2 940.18,-100.98 944.15,-106.75"/>
</g>
<!-- TA&#45;UPDATES&#45;&gt;JLS&#45;35 -->
<g id="edge7" class="edge">
<title>TA&#45;UPDATES&#45;&gt;JLS&#45;35</title>
<path fill="none" stroke="black" d="M791.06,-241.94C886.21,-203.5 1022.67,-147.96 1141.5,-98 1149.81,-94.5 1158.47,-90.83 1167.1,-87.14"/>
<polygon fill="black" stroke="black" points="1168.64,-90.28 1176.46,-83.13 1165.89,-83.85 1168.64,-90.28"/>
</g>
<!-- TT&#45;CHANGES&#45;&gt;TA&#45;UPDATES -->
<g id="edge8" class="edge">
<title>TT&#45;CHANGES&#45;&gt;TA&#45;UPDATES</title>
<path fill="none" stroke="black" d="M671.5,-483.72C671.5,-445.23 671.5,-391.2 671.5,-350.3"/>
<polygon fill="black" stroke="black" points="675,-350.2 671.5,-340.2 668,-350.2 675,-350.2"/>
</g>
</g>
</svg>
