<?xml version="1.0" encoding="UTF-8" standalone="no"?>
<!DOCTYPE svg PUBLIC "-//W3C//DTD SVG 1.1//EN"
 "http://www.w3.org/Graphics/SVG/1.1/DTD/svg11.dtd">
<!-- Generated by graphviz version 2.43.0 (0)
 -->
<!-- Title: G Pages: 1 -->
<svg width="1938pt" height="1453pt"
 viewBox="0.00 0.00 1938.00 1453.00" xmlns="http://www.w3.org/2000/svg" xmlns:xlink="http://www.w3.org/1999/xlink">
<g id="graph0" class="graph" transform="scale(1 1) rotate(0) translate(4 1449)">
<title>G</title>
<polygon fill="white" stroke="transparent" points="-4,4 -4,-1449 1934,-1449 1934,4 -4,4"/>
<!-- TRUSTABLE&#45;SOFTWARE -->
<g id="node1" class="node">
<title>TRUSTABLE&#45;SOFTWARE</title>
<g id="a_node1"><a xlink:href="https://Erikhu1.github.io/json_dev/main/_images/custom_TRUSTABLE-SOFTWARE_graph.svg" xlink:title="TRUSTABLE&#45;SOFTWARE: This\nrelease of JSON&#45;Library\nalso reffered in the\ndocumentation as nlohmann/json\nlibrary is Trustable.\n" target="_top">
<polygon fill="none" stroke="black" points="1091.5,-1445 843.5,-1445 843.5,-1362 1091.5,-1362 1091.5,-1445"/>
<text text-anchor="middle" x="967.5" y="-1429.8" font-family="Open Sans" font-size="14.00">TRUSTABLE&#45;SOFTWARE: This</text>
<text text-anchor="middle" x="967.5" y="-1414.8" font-family="Open Sans" font-size="14.00">release of JSON&#45;Library</text>
<text text-anchor="middle" x="967.5" y="-1399.8" font-family="Open Sans" font-size="14.00">also reffered in the</text>
<text text-anchor="middle" x="967.5" y="-1384.8" font-family="Open Sans" font-size="14.00">documentation as nlohmann/json</text>
<text text-anchor="middle" x="967.5" y="-1369.8" font-family="Open Sans" font-size="14.00">library is Trustable.</text>
</a>
</g>
</g>
<!-- TT&#45;EXPECTATIONS -->
<g id="node13" class="node">
<title>TT&#45;EXPECTATIONS</title>
<g id="a_node13"><a xlink:href="https://Erikhu1.github.io/json_dev/main/_images/custom_TT-EXPECTATIONS_graph.svg" xlink:title="TT&#45;EXPECTATIONS: Documentation\nis provided within score&#45;json,\nspecifying what the nlohmann/json\nlibrary is expected to\ndo, and what it must\nnot do, and how this\nis verified. " target="_top">
<polygon fill="none" stroke="black" points="1097.5,-1218 837.5,-1218 837.5,-1105 1097.5,-1105 1097.5,-1218"/>
<text text-anchor="middle" x="967.5" y="-1202.8" font-family="Open Sans" font-size="14.00">TT&#45;EXPECTATIONS: Documentation</text>
<text text-anchor="middle" x="967.5" y="-1187.8" font-family="Open Sans" font-size="14.00">is provided within score&#45;json,</text>
<text text-anchor="middle" x="967.5" y="-1172.8" font-family="Open Sans" font-size="14.00">specifying what the nlohmann/json</text>
<text text-anchor="middle" x="967.5" y="-1157.8" font-family="Open Sans" font-size="14.00">library is expected to</text>
<text text-anchor="middle" x="967.5" y="-1142.8" font-family="Open Sans" font-size="14.00">do, and what it must</text>
<text text-anchor="middle" x="967.5" y="-1127.8" font-family="Open Sans" font-size="14.00">not do, and how this</text>
<text text-anchor="middle" x="967.5" y="-1112.8" font-family="Open Sans" font-size="14.00">is verified. </text>
</a>
</g>
</g>
<!-- TRUSTABLE&#45;SOFTWARE&#45;&gt;TT&#45;EXPECTATIONS -->
<g id="edge1" class="edge">
<title>TRUSTABLE&#45;SOFTWARE&#45;&gt;TT&#45;EXPECTATIONS</title>
<path fill="none" stroke="black" d="M967.5,-1361.79C967.5,-1325.26 967.5,-1271 967.5,-1228.32"/>
<polygon fill="black" stroke="black" points="971,-1228.29 967.5,-1218.29 964,-1228.29 971,-1228.29"/>
</g>
<!-- JLEX&#45;01 -->
<g id="node2" class="node">
<title>JLEX&#45;01</title>
<g id="a_node2"><a xlink:href="https://Erikhu1.github.io/json_dev/main/_images/custom_JLEX-01_graph.svg" xlink:title="JLEX&#45;01: The requirement\nregarding [JSON Validation](https://eclipse&#45;score.github.io/score/main/modules/baselibs/json/docs/requirements/index.html#comp_req__json__validation)\nis fulfilled. " target="_top">
<polygon fill="none" stroke="black" points="1505,-719 430,-719 430,-666 1505,-666 1505,-719"/>
<text text-anchor="middle" x="967.5" y="-703.8" font-family="Open Sans" font-size="14.00">JLEX&#45;01: The requirement</text>
<text text-anchor="middle" x="967.5" y="-688.8" font-family="Open Sans" font-size="14.00">regarding [JSON Validation](https://eclipse&#45;score.github.io/score/main/modules/baselibs/json/docs/requirements/index.html#comp_req__json__validation)</text>
<text text-anchor="middle" x="967.5" y="-673.8" font-family="Open Sans" font-size="14.00">is fulfilled. </text>
</a>
</g>
</g>
<!-- WFJ&#45;05 -->
<g id="node14" class="node">
<title>WFJ&#45;05</title>
<g id="a_node14"><a xlink:href="https://Erikhu1.github.io/json_dev/main/_images/custom_WFJ-05_graph.svg" xlink:title="WFJ&#45;05: The service provided\nby the nlohmann/json\nlibrary checks the well&#45;formedness\nof objects. " target="_top">
<polygon fill="none" stroke="black" points="1097.5,-522 837.5,-522 837.5,-454 1097.5,-454 1097.5,-522"/>
<text text-anchor="middle" x="967.5" y="-506.8" font-family="Open Sans" font-size="14.00">WFJ&#45;05: The service provided</text>
<text text-anchor="middle" x="967.5" y="-491.8" font-family="Open Sans" font-size="14.00">by the nlohmann/json</text>
<text text-anchor="middle" x="967.5" y="-476.8" font-family="Open Sans" font-size="14.00">library checks the well&#45;formedness</text>
<text text-anchor="middle" x="967.5" y="-461.8" font-family="Open Sans" font-size="14.00">of objects. </text>
</a>
</g>
</g>
<!-- JLEX&#45;01&#45;&gt;WFJ&#45;05 -->
<g id="edge2" class="edge">
<title>JLEX&#45;01&#45;&gt;WFJ&#45;05</title>
<path fill="none" stroke="black" d="M967.5,-665.85C967.5,-632.27 967.5,-572.91 967.5,-532.3"/>
<polygon fill="black" stroke="black" points="971,-532.15 967.5,-522.15 964,-532.15 971,-532.15"/>
</g>
<!-- NJF&#45;06 -->
<g id="node3" class="node">
<title>NJF&#45;06</title>
<g id="a_node3"><a xlink:href="https://Erikhu1.github.io/json_dev/main/_images/custom_NJF-06_graph.svg" xlink:title="NJF&#45;06: The service provided\nby the nlohmann/json\nlibrary accepts and rejects\nobjects according to\nRFC8259 ยง4. " target="_top">
<polygon fill="none" stroke="black" points="1076,-310 859,-310 859,-227 1076,-227 1076,-310"/>
<text text-anchor="middle" x="967.5" y="-294.8" font-family="Open Sans" font-size="14.00">NJF&#45;06: The service provided</text>
<text text-anchor="middle" x="967.5" y="-279.8" font-family="Open Sans" font-size="14.00">by the nlohmann/json</text>
<text text-anchor="middle" x="967.5" y="-264.8" font-family="Open Sans" font-size="14.00">library accepts and rejects</text>
<text text-anchor="middle" x="967.5" y="-249.8" font-family="Open Sans" font-size="14.00">objects according to</text>
<text text-anchor="middle" x="967.5" y="-234.8" font-family="Open Sans" font-size="14.00">RFC8259 ยง4. </text>
</a>
</g>
</g>
<!-- NJF&#45;06.1 -->
<g id="node4" class="node">
<title>NJF&#45;06.1</title>
<g id="a_node4"><a xlink:href="https://Erikhu1.github.io/json_dev/main/generated/NJF.html#njf-06.1" xlink:title="NJF&#45;06.1: The service\nprovided by the nlohmann/json\nlibrary accepts the empty\nobject. " target="_top">
<polygon fill="none" stroke="black" points="233,-75.5 0,-75.5 0,-7.5 233,-7.5 233,-75.5"/>
<text text-anchor="middle" x="116.5" y="-60.3" font-family="Open Sans" font-size="14.00">NJF&#45;06.1: The service</text>
<text text-anchor="middle" x="116.5" y="-45.3" font-family="Open Sans" font-size="14.00">provided by the nlohmann/json</text>
<text text-anchor="middle" x="116.5" y="-30.3" font-family="Open Sans" font-size="14.00">library accepts the empty</text>
<text text-anchor="middle" x="116.5" y="-15.3" font-family="Open Sans" font-size="14.00">object. </text>
</a>
</g>
</g>
<!-- NJF&#45;06&#45;&gt;NJF&#45;06.1 -->
<g id="edge3" class="edge">
<title>NJF&#45;06&#45;&gt;NJF&#45;06.1</title>
<path fill="none" stroke="black" d="M858.98,-242.23C716.54,-208.54 459.06,-145.82 241.5,-83 236.56,-81.57 231.52,-80.08 226.43,-78.55"/>
<polygon fill="black" stroke="black" points="227.2,-75.13 216.62,-75.57 225.17,-81.83 227.2,-75.13"/>
</g>
<!-- NJF&#45;06.2 -->
<g id="node5" class="node">
<title>NJF&#45;06.2</title>
<g id="a_node5"><a xlink:href="https://Erikhu1.github.io/json_dev/main/generated/NJF.html#njf-06.2" xlink:title="NJF&#45;06.2: The service\nprovided by the nlohmann/json\nlibrary does not accept\nimproperly bounded objects.\n" target="_top">
<polygon fill="none" stroke="black" points="484,-75.5 251,-75.5 251,-7.5 484,-7.5 484,-75.5"/>
<text text-anchor="middle" x="367.5" y="-60.3" font-family="Open Sans" font-size="14.00">NJF&#45;06.2: The service</text>
<text text-anchor="middle" x="367.5" y="-45.3" font-family="Open Sans" font-size="14.00">provided by the nlohmann/json</text>
<text text-anchor="middle" x="367.5" y="-30.3" font-family="Open Sans" font-size="14.00">library does not accept</text>
<text text-anchor="middle" x="367.5" y="-15.3" font-family="Open Sans" font-size="14.00">improperly bounded objects.</text>
</a>
</g>
</g>
<!-- NJF&#45;06&#45;&gt;NJF&#45;06.2 -->
<g id="edge4" class="edge">
<title>NJF&#45;06&#45;&gt;NJF&#45;06.2</title>
<path fill="none" stroke="black" d="M859.19,-226.88C747.13,-184.86 573.67,-119.82 465.55,-79.27"/>
<polygon fill="black" stroke="black" points="466.53,-75.9 455.94,-75.67 464.08,-82.45 466.53,-75.9"/>
</g>
<!-- NJF&#45;06.3 -->
<g id="node6" class="node">
<title>NJF&#45;06.3</title>
<g id="a_node6"><a xlink:href="https://Erikhu1.github.io/json_dev/main/generated/NJF.html#njf-06.3" xlink:title="NJF&#45;06.3: The service\nprovided by the nlohmann/json\nlibrary accepts the non&#45;empty\nobjects. " target="_top">
<polygon fill="none" stroke="black" points="735,-75.5 502,-75.5 502,-7.5 735,-7.5 735,-75.5"/>
<text text-anchor="middle" x="618.5" y="-60.3" font-family="Open Sans" font-size="14.00">NJF&#45;06.3: The service</text>
<text text-anchor="middle" x="618.5" y="-45.3" font-family="Open Sans" font-size="14.00">provided by the nlohmann/json</text>
<text text-anchor="middle" x="618.5" y="-30.3" font-family="Open Sans" font-size="14.00">library accepts the non&#45;empty</text>
<text text-anchor="middle" x="618.5" y="-15.3" font-family="Open Sans" font-size="14.00">objects. </text>
</a>
</g>
</g>
<!-- NJF&#45;06&#45;&gt;NJF&#45;06.3 -->
<g id="edge5" class="edge">
<title>NJF&#45;06&#45;&gt;NJF&#45;06.3</title>
<path fill="none" stroke="black" d="M904.3,-226.75C840.14,-185.39 741.52,-121.81 678.53,-81.2"/>
<polygon fill="black" stroke="black" points="680.18,-78.1 669.88,-75.63 676.39,-83.99 680.18,-78.1"/>
</g>
<!-- NJF&#45;06.4 -->
<g id="node7" class="node">
<title>NJF&#45;06.4</title>
<g id="a_node7"><a xlink:href="https://Erikhu1.github.io/json_dev/main/_images/custom_NJF-06.4_graph.svg" xlink:title="NJF&#45;06.4: The admissible\nmembers of an object\nprovided to the score&#45;json\nhave the form name :\nvalue. " target="_top">
<polygon fill="none" stroke="black" points="950,-83 753,-83 753,0 950,0 950,-83"/>
<text text-anchor="middle" x="851.5" y="-67.8" font-family="Open Sans" font-size="14.00">NJF&#45;06.4: The admissible</text>
<text text-anchor="middle" x="851.5" y="-52.8" font-family="Open Sans" font-size="14.00">members of an object</text>
<text text-anchor="middle" x="851.5" y="-37.8" font-family="Open Sans" font-size="14.00">provided to the score&#45;json</text>
<text text-anchor="middle" x="851.5" y="-22.8" font-family="Open Sans" font-size="14.00">have the form name :</text>
<text text-anchor="middle" x="851.5" y="-7.8" font-family="Open Sans" font-size="14.00">value. </text>
</a>
</g>
</g>
<!-- NJF&#45;06&#45;&gt;NJF&#45;06.4 -->
<g id="edge6" class="edge">
<title>NJF&#45;06&#45;&gt;NJF&#45;06.4</title>
<path fill="none" stroke="black" d="M946.49,-226.75C927.05,-189.04 898.09,-132.86 877.26,-92.46"/>
<polygon fill="black" stroke="black" points="880.24,-90.61 872.55,-83.32 874.02,-93.81 880.24,-90.61"/>
</g>
<!-- NJF&#45;06.5 -->
<g id="node8" class="node">
<title>NJF&#45;06.5</title>
<g id="a_node8"><a xlink:href="https://Erikhu1.github.io/json_dev/main/_images/custom_NJF-06.5_graph.svg" xlink:title="NJF&#45;06.5: The service\nprovided by the nlohmann/json\nlibrary does not accept\nobjects with improper\nmembers. " target="_top">
<polygon fill="none" stroke="black" points="1201,-83 968,-83 968,0 1201,0 1201,-83"/>
<text text-anchor="middle" x="1084.5" y="-67.8" font-family="Open Sans" font-size="14.00">NJF&#45;06.5: The service</text>
<text text-anchor="middle" x="1084.5" y="-52.8" font-family="Open Sans" font-size="14.00">provided by the nlohmann/json</text>
<text text-anchor="middle" x="1084.5" y="-37.8" font-family="Open Sans" font-size="14.00">library does not accept</text>
<text text-anchor="middle" x="1084.5" y="-22.8" font-family="Open Sans" font-size="14.00">objects with improper</text>
<text text-anchor="middle" x="1084.5" y="-7.8" font-family="Open Sans" font-size="14.00">members. </text>
</a>
</g>
</g>
<!-- NJF&#45;06&#45;&gt;NJF&#45;06.5 -->
<g id="edge7" class="edge">
<title>NJF&#45;06&#45;&gt;NJF&#45;06.5</title>
<path fill="none" stroke="black" d="M988.69,-226.75C1008.34,-188.96 1037.63,-132.63 1058.65,-92.21"/>
<polygon fill="black" stroke="black" points="1061.76,-93.81 1063.27,-83.32 1055.55,-90.58 1061.76,-93.81"/>
</g>
<!-- NJF&#45;06.6 -->
<g id="node9" class="node">
<title>NJF&#45;06.6</title>
<g id="a_node9"><a xlink:href="https://Erikhu1.github.io/json_dev/main/generated/NJF.html#njf-06.6" xlink:title="NJF&#45;06.6: The service\nprovided by the nlohmann/json\nlibrary accepts the nested\nobjects. " target="_top">
<polygon fill="none" stroke="black" points="1452,-75.5 1219,-75.5 1219,-7.5 1452,-7.5 1452,-75.5"/>
<text text-anchor="middle" x="1335.5" y="-60.3" font-family="Open Sans" font-size="14.00">NJF&#45;06.6: The service</text>
<text text-anchor="middle" x="1335.5" y="-45.3" font-family="Open Sans" font-size="14.00">provided by the nlohmann/json</text>
<text text-anchor="middle" x="1335.5" y="-30.3" font-family="Open Sans" font-size="14.00">library accepts the nested</text>
<text text-anchor="middle" x="1335.5" y="-15.3" font-family="Open Sans" font-size="14.00">objects. </text>
</a>
</g>
</g>
<!-- NJF&#45;06&#45;&gt;NJF&#45;06.6 -->
<g id="edge8" class="edge">
<title>NJF&#45;06&#45;&gt;NJF&#45;06.6</title>
<path fill="none" stroke="black" d="M1034.14,-226.75C1101.93,-185.3 1206.21,-121.55 1272.61,-80.95"/>
<polygon fill="black" stroke="black" points="1274.61,-83.83 1281.32,-75.63 1270.96,-77.86 1274.61,-83.83"/>
</g>
<!-- NJF&#45;06.6.0 -->
<g id="node10" class="node">
<title>NJF&#45;06.6.0</title>
<g id="a_node10"><a xlink:href="https://Erikhu1.github.io/json_dev/main/generated/NJF.html#njf-06.6.0" xlink:title="NJF&#45;06.6.0: The acceptance\nof nested objects inside\nnlohmann/json does not\ndepend on the depth of\nnesting. " target="_top">
<polygon fill="none" stroke="black" points="1678.5,-83 1470.5,-83 1470.5,0 1678.5,0 1678.5,-83"/>
<text text-anchor="middle" x="1574.5" y="-67.8" font-family="Open Sans" font-size="14.00">NJF&#45;06.6.0: The acceptance</text>
<text text-anchor="middle" x="1574.5" y="-52.8" font-family="Open Sans" font-size="14.00">of nested objects inside</text>
<text text-anchor="middle" x="1574.5" y="-37.8" font-family="Open Sans" font-size="14.00">nlohmann/json does not</text>
<text text-anchor="middle" x="1574.5" y="-22.8" font-family="Open Sans" font-size="14.00">depend on the depth of</text>
<text text-anchor="middle" x="1574.5" y="-7.8" font-family="Open Sans" font-size="14.00">nesting. </text>
</a>
</g>
</g>
<!-- NJF&#45;06&#45;&gt;NJF&#45;06.6.0 -->
<g id="edge10" class="edge">
<title>NJF&#45;06&#45;&gt;NJF&#45;06.6.0</title>
<path fill="none" stroke="black" d="M1076.02,-227.27C1184.54,-187.05 1350.72,-125.45 1460.97,-84.58"/>
<polygon fill="black" stroke="black" points="1462.31,-87.82 1470.47,-81.06 1459.88,-81.26 1462.31,-87.82"/>
</g>
<!-- NJF&#45;06.7 -->
<g id="node11" class="node">
<title>NJF&#45;06.7</title>
<g id="a_node11"><a xlink:href="https://Erikhu1.github.io/json_dev/main/_images/custom_NJF-06.7_graph.svg" xlink:title="NJF&#45;06.7: The service\nprovided by the nlohmann/json\nlibrary does only accept\ncomma as member separator.\n" target="_top">
<polygon fill="none" stroke="black" points="1930,-75.5 1697,-75.5 1697,-7.5 1930,-7.5 1930,-75.5"/>
<text text-anchor="middle" x="1813.5" y="-60.3" font-family="Open Sans" font-size="14.00">NJF&#45;06.7: The service</text>
<text text-anchor="middle" x="1813.5" y="-45.3" font-family="Open Sans" font-size="14.00">provided by the nlohmann/json</text>
<text text-anchor="middle" x="1813.5" y="-30.3" font-family="Open Sans" font-size="14.00">library does only accept</text>
<text text-anchor="middle" x="1813.5" y="-15.3" font-family="Open Sans" font-size="14.00">comma as member separator.</text>
</a>
</g>
</g>
<!-- NJF&#45;06&#45;&gt;NJF&#45;06.7 -->
<g id="edge9" class="edge">
<title>NJF&#45;06&#45;&gt;NJF&#45;06.7</title>
<path fill="none" stroke="black" d="M1076,-241.85C1217.41,-207.93 1472.08,-145.16 1687.5,-83 1692.48,-81.56 1697.56,-80.07 1702.68,-78.53"/>
<polygon fill="black" stroke="black" points="1704.01,-81.78 1712.57,-75.53 1701.98,-75.08 1704.01,-81.78"/>
</g>
<!-- TA&#45;BEHAVIOURS -->
<g id="node12" class="node">
<title>TA&#45;BEHAVIOURS</title>
<g id="a_node12"><a xlink:href="https://Erikhu1.github.io/json_dev/main/_images/custom_TA-BEHAVIOURS_graph.svg" xlink:title="TA&#45;BEHAVIOURS: Expected\nor required behaviours\nfor the nlohmann/json\nlibrary are identified,\nspecified, verified and\nvalidated based on analysis.\n" target="_top">
<polygon fill="none" stroke="black" points="1074.5,-961 860.5,-961 860.5,-863 1074.5,-863 1074.5,-961"/>
<text text-anchor="middle" x="967.5" y="-945.8" font-family="Open Sans" font-size="14.00">TA&#45;BEHAVIOURS: Expected</text>
<text text-anchor="middle" x="967.5" y="-930.8" font-family="Open Sans" font-size="14.00">or required behaviours</text>
<text text-anchor="middle" x="967.5" y="-915.8" font-family="Open Sans" font-size="14.00">for the nlohmann/json</text>
<text text-anchor="middle" x="967.5" y="-900.8" font-family="Open Sans" font-size="14.00">library are identified,</text>
<text text-anchor="middle" x="967.5" y="-885.8" font-family="Open Sans" font-size="14.00">specified, verified and</text>
<text text-anchor="middle" x="967.5" y="-870.8" font-family="Open Sans" font-size="14.00">validated based on analysis.</text>
</a>
</g>
</g>
<!-- TA&#45;BEHAVIOURS&#45;&gt;JLEX&#45;01 -->
<g id="edge11" class="edge">
<title>TA&#45;BEHAVIOURS&#45;&gt;JLEX&#45;01</title>
<path fill="none" stroke="black" d="M967.5,-863C967.5,-822.58 967.5,-765.67 967.5,-729.18"/>
<polygon fill="black" stroke="black" points="971,-729.01 967.5,-719.01 964,-729.01 971,-729.01"/>
</g>
<!-- TT&#45;EXPECTATIONS&#45;&gt;TA&#45;BEHAVIOURS -->
<g id="edge12" class="edge">
<title>TT&#45;EXPECTATIONS&#45;&gt;TA&#45;BEHAVIOURS</title>
<path fill="none" stroke="black" d="M967.5,-1104.96C967.5,-1065.23 967.5,-1011.87 967.5,-971.49"/>
<polygon fill="black" stroke="black" points="971,-971.26 967.5,-961.26 964,-971.26 971,-971.26"/>
</g>
<!-- WFJ&#45;05&#45;&gt;NJF&#45;06 -->
<g id="edge13" class="edge">
<title>WFJ&#45;05&#45;&gt;NJF&#45;06</title>
<path fill="none" stroke="black" d="M967.5,-453.97C967.5,-418.47 967.5,-361.61 967.5,-320.39"/>
<polygon fill="black" stroke="black" points="971,-320.27 967.5,-310.27 964,-320.27 971,-320.27"/>
</g>
</g>
</svg>
