<?xml version="1.0" encoding="UTF-8" standalone="no"?>
<!DOCTYPE svg PUBLIC "-//W3C//DTD SVG 1.1//EN"
 "http://www.w3.org/Graphics/SVG/1.1/DTD/svg11.dtd">
<!-- Generated by graphviz version 2.43.0 (0)
 -->
<!-- Title: G Pages: 1 -->
<svg width="1704pt" height="862pt"
 viewBox="0.00 0.00 1704.00 862.00" xmlns="http://www.w3.org/2000/svg" xmlns:xlink="http://www.w3.org/1999/xlink">
<g id="graph0" class="graph" transform="scale(1 1) rotate(0) translate(4 858)">
<title>G</title>
<polygon fill="white" stroke="transparent" points="-4,4 -4,-858 1700,-858 1700,4 -4,4"/>
<!-- TRUSTABLE&#45;SOFTWARE -->
<g id="node1" class="node">
<title>TRUSTABLE&#45;SOFTWARE</title>
<g id="a_node1"><a xlink:href="https://Erikhu1.github.io/json_dev/main/_images/custom_TRUSTABLE-SOFTWARE_graph.svg" xlink:title="TRUSTABLE&#45;SOFTWARE: This\nrelease of JSON&#45;Library\nalso reffered in the\ndocumentation as nlohmann/json\nlibrary is Trustable.\n" target="_top">
<polygon fill="none" stroke="black" points="919,-854 671,-854 671,-771 919,-771 919,-854"/>
<text text-anchor="middle" x="795" y="-838.8" font-family="Open Sans" font-size="14.00">TRUSTABLE&#45;SOFTWARE: This</text>
<text text-anchor="middle" x="795" y="-823.8" font-family="Open Sans" font-size="14.00">release of JSON&#45;Library</text>
<text text-anchor="middle" x="795" y="-808.8" font-family="Open Sans" font-size="14.00">also reffered in the</text>
<text text-anchor="middle" x="795" y="-793.8" font-family="Open Sans" font-size="14.00">documentation as nlohmann/json</text>
<text text-anchor="middle" x="795" y="-778.8" font-family="Open Sans" font-size="14.00">library is Trustable.</text>
</a>
</g>
</g>
<!-- TT&#45;CHANGES -->
<g id="node10" class="node">
<title>TT&#45;CHANGES</title>
<g id="a_node10"><a xlink:href="https://Erikhu1.github.io/json_dev/main/_images/custom_TT-CHANGES_graph.svg" xlink:title="TT&#45;CHANGES: The nlohmann/json\nlibrary is actively maintained,\nwith regular updates\nto dependencies, and\nchanges are verified\nto prevent regressions.\n" target="_top">
<polygon fill="none" stroke="black" points="919,-627 671,-627 671,-529 919,-529 919,-627"/>
<text text-anchor="middle" x="795" y="-611.8" font-family="Open Sans" font-size="14.00">TT&#45;CHANGES: The nlohmann/json</text>
<text text-anchor="middle" x="795" y="-596.8" font-family="Open Sans" font-size="14.00">library is actively maintained,</text>
<text text-anchor="middle" x="795" y="-581.8" font-family="Open Sans" font-size="14.00">with regular updates</text>
<text text-anchor="middle" x="795" y="-566.8" font-family="Open Sans" font-size="14.00">to dependencies, and</text>
<text text-anchor="middle" x="795" y="-551.8" font-family="Open Sans" font-size="14.00">changes are verified</text>
<text text-anchor="middle" x="795" y="-536.8" font-family="Open Sans" font-size="14.00">to prevent regressions.</text>
</a>
</g>
</g>
<!-- TRUSTABLE&#45;SOFTWARE&#45;&gt;TT&#45;CHANGES -->
<g id="edge1" class="edge">
<title>TRUSTABLE&#45;SOFTWARE&#45;&gt;TT&#45;CHANGES</title>
<path fill="none" stroke="black" d="M795,-770.74C795,-733.88 795,-679.18 795,-637.63"/>
<polygon fill="black" stroke="black" points="798.5,-637.37 795,-627.37 791.5,-637.37 798.5,-637.37"/>
</g>
<!-- JLS&#45;04 -->
<g id="node2" class="node">
<title>JLS&#45;04</title>
<g id="a_node2"><a xlink:href="https://Erikhu1.github.io/json_dev/main/generated/JLS.html#jls-04" xlink:title="JLS&#45;04: External dependencies\nwithin nlohmann/json\nare checked for potential\nsecurity vulnerabilities\nwith each pull request\nto main. Merging is blocked\nuntil all warnings are\nresolved. " target="_top">
<polygon fill="none" stroke="black" points="228,-128 0,-128 0,0 228,0 228,-128"/>
<text text-anchor="middle" x="114" y="-112.8" font-family="Open Sans" font-size="14.00">JLS&#45;04: External dependencies</text>
<text text-anchor="middle" x="114" y="-97.8" font-family="Open Sans" font-size="14.00">within nlohmann/json</text>
<text text-anchor="middle" x="114" y="-82.8" font-family="Open Sans" font-size="14.00">are checked for potential</text>
<text text-anchor="middle" x="114" y="-67.8" font-family="Open Sans" font-size="14.00">security vulnerabilities</text>
<text text-anchor="middle" x="114" y="-52.8" font-family="Open Sans" font-size="14.00">with each pull request</text>
<text text-anchor="middle" x="114" y="-37.8" font-family="Open Sans" font-size="14.00">to main. Merging is blocked</text>
<text text-anchor="middle" x="114" y="-22.8" font-family="Open Sans" font-size="14.00">until all warnings are</text>
<text text-anchor="middle" x="114" y="-7.8" font-family="Open Sans" font-size="14.00">resolved. </text>
</a>
</g>
</g>
<!-- JLS&#45;05 -->
<g id="node3" class="node">
<title>JLS&#45;05</title>
<g id="a_node3"><a xlink:href="https://Erikhu1.github.io/json_dev/main/generated/JLS.html#jls-05" xlink:title="JLS&#45;05: The nlohmann/json\nlibrary is widely used\nand actively maintained;\nbugs and misbehaviours\nare tracked publicly\nand transparently. " target="_top">
<polygon fill="none" stroke="black" points="449.5,-113 246.5,-113 246.5,-15 449.5,-15 449.5,-113"/>
<text text-anchor="middle" x="348" y="-97.8" font-family="Open Sans" font-size="14.00">JLS&#45;05: The nlohmann/json</text>
<text text-anchor="middle" x="348" y="-82.8" font-family="Open Sans" font-size="14.00">library is widely used</text>
<text text-anchor="middle" x="348" y="-67.8" font-family="Open Sans" font-size="14.00">and actively maintained;</text>
<text text-anchor="middle" x="348" y="-52.8" font-family="Open Sans" font-size="14.00">bugs and misbehaviours</text>
<text text-anchor="middle" x="348" y="-37.8" font-family="Open Sans" font-size="14.00">are tracked publicly</text>
<text text-anchor="middle" x="348" y="-22.8" font-family="Open Sans" font-size="14.00">and transparently. </text>
</a>
</g>
</g>
<!-- JLS&#45;11 -->
<g id="node4" class="node">
<title>JLS&#45;11</title>
<g id="a_node4"><a xlink:href="https://Erikhu1.github.io/json_dev/main/generated/JLS.html#jls-11" xlink:title="JLS&#45;11: Outstanding bugs\nor misbehaviours are\nanalyzed within score&#45;json\nto determine whether\nthey are relevant for\nS&#45;CORE&#39;s use cases of\nthe nlohmann/json library.\n" target="_top">
<polygon fill="none" stroke="black" points="668,-120.5 468,-120.5 468,-7.5 668,-7.5 668,-120.5"/>
<text text-anchor="middle" x="568" y="-105.3" font-family="Open Sans" font-size="14.00">JLS&#45;11: Outstanding bugs</text>
<text text-anchor="middle" x="568" y="-90.3" font-family="Open Sans" font-size="14.00">or misbehaviours are</text>
<text text-anchor="middle" x="568" y="-75.3" font-family="Open Sans" font-size="14.00">analyzed within score&#45;json</text>
<text text-anchor="middle" x="568" y="-60.3" font-family="Open Sans" font-size="14.00">to determine whether</text>
<text text-anchor="middle" x="568" y="-45.3" font-family="Open Sans" font-size="14.00">they are relevant for</text>
<text text-anchor="middle" x="568" y="-30.3" font-family="Open Sans" font-size="14.00">S&#45;CORE&#39;s use cases of</text>
<text text-anchor="middle" x="568" y="-15.3" font-family="Open Sans" font-size="14.00">the nlohmann/json library.</text>
</a>
</g>
</g>
<!-- JLS&#45;28 -->
<g id="node5" class="node">
<title>JLS&#45;28</title>
<g id="a_node5"><a xlink:href="https://Erikhu1.github.io/json_dev/main/generated/JLS.html#jls-28" xlink:title="JLS&#45;28: Outstanding bugs\nand misbehaviours are\ntriaged in the nlohmann/json\nrepository. " target="_top">
<polygon fill="none" stroke="black" points="904,-98 686,-98 686,-30 904,-30 904,-98"/>
<text text-anchor="middle" x="795" y="-82.8" font-family="Open Sans" font-size="14.00">JLS&#45;28: Outstanding bugs</text>
<text text-anchor="middle" x="795" y="-67.8" font-family="Open Sans" font-size="14.00">and misbehaviours are</text>
<text text-anchor="middle" x="795" y="-52.8" font-family="Open Sans" font-size="14.00">triaged in the nlohmann/json</text>
<text text-anchor="middle" x="795" y="-37.8" font-family="Open Sans" font-size="14.00">repository. </text>
</a>
</g>
</g>
<!-- JLS&#45;29 -->
<g id="node6" class="node">
<title>JLS&#45;29</title>
<g id="a_node6"><a xlink:href="https://Erikhu1.github.io/json_dev/main/generated/JLS.html#jls-29" xlink:title="JLS&#45;29: Known bugs, misbehaviours\nand CVEs are analyzed\nand fixed or mitigated\nin the nlohmann/json\nrepository. " target="_top">
<polygon fill="none" stroke="black" points="1188,-105.5 922,-105.5 922,-22.5 1188,-22.5 1188,-105.5"/>
<text text-anchor="middle" x="1055" y="-90.3" font-family="Open Sans" font-size="14.00">JLS&#45;29: Known bugs, misbehaviours</text>
<text text-anchor="middle" x="1055" y="-75.3" font-family="Open Sans" font-size="14.00">and CVEs are analyzed</text>
<text text-anchor="middle" x="1055" y="-60.3" font-family="Open Sans" font-size="14.00">and fixed or mitigated</text>
<text text-anchor="middle" x="1055" y="-45.3" font-family="Open Sans" font-size="14.00">in the nlohmann/json</text>
<text text-anchor="middle" x="1055" y="-30.3" font-family="Open Sans" font-size="14.00">repository. </text>
</a>
</g>
</g>
<!-- JLS&#45;30 -->
<g id="node7" class="node">
<title>JLS&#45;30</title>
<g id="a_node7"><a xlink:href="https://Erikhu1.github.io/json_dev/main/generated/JLS.html#jls-30" xlink:title="JLS&#45;30: Outstanding CVEs\nare analyzed within score&#45;json\nto determine whether\nthey can be dismissed,\nand/or are relevant for\nS&#45;CORE&#39;s use cases of\nthe nlohmann/json library.\n" target="_top">
<polygon fill="none" stroke="black" points="1433.5,-120.5 1206.5,-120.5 1206.5,-7.5 1433.5,-7.5 1433.5,-120.5"/>
<text text-anchor="middle" x="1320" y="-105.3" font-family="Open Sans" font-size="14.00">JLS&#45;30: Outstanding CVEs</text>
<text text-anchor="middle" x="1320" y="-90.3" font-family="Open Sans" font-size="14.00">are analyzed within score&#45;json</text>
<text text-anchor="middle" x="1320" y="-75.3" font-family="Open Sans" font-size="14.00">to determine whether</text>
<text text-anchor="middle" x="1320" y="-60.3" font-family="Open Sans" font-size="14.00">they can be dismissed,</text>
<text text-anchor="middle" x="1320" y="-45.3" font-family="Open Sans" font-size="14.00">and/or are relevant for</text>
<text text-anchor="middle" x="1320" y="-30.3" font-family="Open Sans" font-size="14.00">S&#45;CORE&#39;s use cases of</text>
<text text-anchor="middle" x="1320" y="-15.3" font-family="Open Sans" font-size="14.00">the nlohmann/json library.</text>
</a>
</g>
</g>
<!-- JLS&#45;33 -->
<g id="node8" class="node">
<title>JLS&#45;33</title>
<g id="a_node8"><a xlink:href="https://Erikhu1.github.io/json_dev/main/generated/JLS.html#jls-33" xlink:title="JLS&#45;33: Outstanding CVEs\nare triaged in the nlohmann/json\nrepository. " target="_top">
<polygon fill="none" stroke="black" points="1696,-90.5 1452,-90.5 1452,-37.5 1696,-37.5 1696,-90.5"/>
<text text-anchor="middle" x="1574" y="-75.3" font-family="Open Sans" font-size="14.00">JLS&#45;33: Outstanding CVEs</text>
<text text-anchor="middle" x="1574" y="-60.3" font-family="Open Sans" font-size="14.00">are triaged in the nlohmann/json</text>
<text text-anchor="middle" x="1574" y="-45.3" font-family="Open Sans" font-size="14.00">repository. </text>
</a>
</g>
</g>
<!-- TA&#45;FIXES -->
<g id="node9" class="node">
<title>TA&#45;FIXES</title>
<g id="a_node9"><a xlink:href="https://Erikhu1.github.io/json_dev/main/_images/custom_TA-FIXES_graph.svg" xlink:title="TA&#45;FIXES: In the nlohmann/json\nrepository, known bugs\nor misbehaviours are\nanalysed and triaged,\nand critical fixes or\nmitigations are implemented\nor applied. " target="_top">
<polygon fill="none" stroke="black" points="913,-385 677,-385 677,-272 913,-272 913,-385"/>
<text text-anchor="middle" x="795" y="-369.8" font-family="Open Sans" font-size="14.00">TA&#45;FIXES: In the nlohmann/json</text>
<text text-anchor="middle" x="795" y="-354.8" font-family="Open Sans" font-size="14.00">repository, known bugs</text>
<text text-anchor="middle" x="795" y="-339.8" font-family="Open Sans" font-size="14.00">or misbehaviours are</text>
<text text-anchor="middle" x="795" y="-324.8" font-family="Open Sans" font-size="14.00">analysed and triaged,</text>
<text text-anchor="middle" x="795" y="-309.8" font-family="Open Sans" font-size="14.00">and critical fixes or</text>
<text text-anchor="middle" x="795" y="-294.8" font-family="Open Sans" font-size="14.00">mitigations are implemented</text>
<text text-anchor="middle" x="795" y="-279.8" font-family="Open Sans" font-size="14.00">or applied. </text>
</a>
</g>
</g>
<!-- TA&#45;FIXES&#45;&gt;JLS&#45;04 -->
<g id="edge3" class="edge">
<title>TA&#45;FIXES&#45;&gt;JLS&#45;04</title>
<path fill="none" stroke="black" d="M676.79,-290.2C564.88,-253.76 392.6,-194.71 237.27,-128.02"/>
<polygon fill="black" stroke="black" points="238.58,-124.78 228.01,-124.03 235.8,-131.2 238.58,-124.78"/>
</g>
<!-- TA&#45;FIXES&#45;&gt;JLS&#45;05 -->
<g id="edge2" class="edge">
<title>TA&#45;FIXES&#45;&gt;JLS&#45;05</title>
<path fill="none" stroke="black" d="M700.48,-271.99C623.26,-226.65 514.82,-162.96 438.66,-118.24"/>
<polygon fill="black" stroke="black" points="440.4,-115.2 430.01,-113.16 436.86,-121.24 440.4,-115.2"/>
</g>
<!-- TA&#45;FIXES&#45;&gt;JLS&#45;11 -->
<g id="edge4" class="edge">
<title>TA&#45;FIXES&#45;&gt;JLS&#45;11</title>
<path fill="none" stroke="black" d="M746.86,-271.83C710.52,-229.81 660.62,-172.1 622.76,-128.32"/>
<polygon fill="black" stroke="black" points="625.26,-125.86 616.07,-120.59 619.97,-130.44 625.26,-125.86"/>
</g>
<!-- TA&#45;FIXES&#45;&gt;JLS&#45;28 -->
<g id="edge7" class="edge">
<title>TA&#45;FIXES&#45;&gt;JLS&#45;28</title>
<path fill="none" stroke="black" d="M795,-271.83C795,-223.07 795,-153.19 795,-108.45"/>
<polygon fill="black" stroke="black" points="798.5,-108.2 795,-98.2 791.5,-108.2 798.5,-108.2"/>
</g>
<!-- TA&#45;FIXES&#45;&gt;JLS&#45;29 -->
<g id="edge6" class="edge">
<title>TA&#45;FIXES&#45;&gt;JLS&#45;29</title>
<path fill="none" stroke="black" d="M850.14,-271.83C896.88,-224.64 963.2,-157.68 1007.59,-112.86"/>
<polygon fill="black" stroke="black" points="1010.24,-115.16 1014.79,-105.59 1005.27,-110.23 1010.24,-115.16"/>
</g>
<!-- TA&#45;FIXES&#45;&gt;JLS&#45;30 -->
<g id="edge5" class="edge">
<title>TA&#45;FIXES&#45;&gt;JLS&#45;30</title>
<path fill="none" stroke="black" d="M907.82,-271.99C988.51,-232.17 1099.6,-177.11 1197,-128 1198.81,-127.09 1200.63,-126.17 1202.46,-125.24"/>
<polygon fill="black" stroke="black" points="1204.37,-128.2 1211.71,-120.56 1201.21,-121.95 1204.37,-128.2"/>
</g>
<!-- TA&#45;FIXES&#45;&gt;JLS&#45;33 -->
<g id="edge8" class="edge">
<title>TA&#45;FIXES&#45;&gt;JLS&#45;33</title>
<path fill="none" stroke="black" d="M913.28,-296.82C1044.59,-261.44 1261.89,-198.97 1443,-128 1467.47,-118.41 1493.71,-106.2 1516.24,-95.08"/>
<polygon fill="black" stroke="black" points="1517.93,-98.15 1525.32,-90.56 1514.81,-91.88 1517.93,-98.15"/>
</g>
<!-- TT&#45;CHANGES&#45;&gt;TA&#45;FIXES -->
<g id="edge9" class="edge">
<title>TT&#45;CHANGES&#45;&gt;TA&#45;FIXES</title>
<path fill="none" stroke="black" d="M795,-528.99C795,-490.93 795,-437.36 795,-395.31"/>
<polygon fill="black" stroke="black" points="798.5,-395.16 795,-385.16 791.5,-395.16 798.5,-395.16"/>
</g>
</g>
</svg>
